<svg xmlns="http://www.w3.org/2000/svg" version="1.1" xmlns:xlink="http://www.w3.org/1999/xlink" width="512" height="512" x="0" y="0" viewBox="0 0 173.397 173.397" style="enable-background:new 0 0 512 512" xml:space="preserve" fill-rule="evenodd" class=""><g><path d="M96.987 148.075c-3.486 0-6.974-.664-10.262-2l-35.73-13.253c-2.299-.848-4.573-1.474-6.763-1.86-4.454-.838-9.043-.929-13.659-.274l-6.137.917a1.783 1.783 0 0 1-.53-3.524l6.155-.92c5.014-.71 9.992-.611 14.811.294 2.38.42 4.86 1.102 7.36 2.025l35.759 13.263a23.797 23.797 0 0 0 19.363-.605l50.258-24.297a5.81 5.81 0 0 0 3.016-3.384 5.839 5.839 0 0 0-.3-4.541 5.887 5.887 0 0 0-5.266-3.26c-.479 0-1.024.076-1.571.218l-42.093 12.51a1.782 1.782 0 1 1-1.015-3.416l42.121-12.519.052-.015a10.04 10.04 0 0 1 2.506-.341c3.58 0 6.819 2 8.452 5.22a9.38 9.38 0 0 1 .483 7.302 9.336 9.336 0 0 1-4.845 5.439l-50.245 24.292a27.378 27.378 0 0 1-11.92 2.729z" fill="#ff6402" opacity="1" data-original="#ff6402"></path><path d="M104.137 126.216c-.858 0-1.73-.13-2.59-.403l-31.216-9.58a1.78 1.78 0 0 1-1.18-2.226 1.78 1.78 0 0 1 2.225-1.18l31.23 9.584a4.936 4.936 0 0 0 6.177-3.095 5.26 5.26 0 0 0 .287-1.674c0-.19 0-.367-.015-.489-.002-.015-.003-.03-.006-.043a5.031 5.031 0 0 0-2.41-3.734L68.308 97.79c-8.47-3.47-17.796-4.834-26.975-3.946l-16.96 1.944A1.784 1.784 0 0 1 22.4 94.22a1.784 1.784 0 0 1 1.569-1.973l16.975-1.945.03-.004c9.76-.946 19.677.503 28.683 4.192l38.44 15.63c.068.029.136.062.2.099 2.36 1.329 3.96 3.74 4.289 6.45.05.365.05.702.05.973 0 .932-.155 1.856-.48 2.827-1.24 3.542-4.499 5.747-8.02 5.747z" fill="#ff6402" opacity="1" data-original="#ff6402"></path><path d="M12.444 135.135h4.654a5.296 5.296 0 0 0 5.289-5.292l.001-35.826a5.297 5.297 0 0 0-5.291-5.29l-4.653-.001zm4.654 3.563h-6.436a1.78 1.78 0 0 1-1.782-1.78V86.943a1.78 1.78 0 0 1 1.782-1.782h6.436c4.881 0 8.853 3.972 8.853 8.855l.001 35.826c0 4.883-3.973 8.856-8.855 8.856zM57.075 79.079h94.331V28.886H57.075zm94.523 3.564h-94.75c-1.84 0-3.338-1.513-3.338-3.373V28.695a3.377 3.377 0 0 1 3.375-3.373h94.713a3.377 3.377 0 0 1 3.371 3.374l.001 50.573a3.377 3.377 0 0 1-3.372 3.374z" fill="#ff6402" opacity="1" data-original="#ff6402"></path><path d="M74.606 70.662h59.2c.782-4.454 4.451-7.974 9.076-8.703l.001-15.988a11.078 11.078 0 0 1-5.975-2.947c-1.654-1.585-2.725-3.584-3.103-5.756H74.61a10.547 10.547 0 0 1-3.073 5.8 10.67 10.67 0 0 1-6.01 2.94v15.914a10.703 10.703 0 0 1 6 2.955c1.644 1.597 2.705 3.607 3.08 5.785zm60.828 3.564H72.975a1.78 1.78 0 0 1-1.782-1.782c0-1.883-.764-3.663-2.15-5.013a7.172 7.172 0 0 0-5.25-2.047 1.767 1.767 0 0 1-1.29-.504 1.78 1.78 0 0 1-.542-1.278V44.327c0-.48.195-.941.542-1.277a1.799 1.799 0 0 1 1.29-.504c1.983.055 3.858-.667 5.26-2.032 1.38-1.344 2.14-3.13 2.14-5.028a1.782 1.782 0 0 1 1.782-1.782h62.457a1.784 1.784 0 0 1 1.781 1.782c.001 1.869.768 3.632 2.157 4.964 1.411 1.351 3.291 2.095 5.293 2.095a1.782 1.782 0 0 1 1.782 1.782l.001 19.275c0 .984-.8 1.782-1.783 1.782-4.107 0-7.45 3.167-7.45 7.06a1.78 1.78 0 0 1-1.782 1.782z" fill="#ff6402" opacity="1" data-original="#ff6402"></path><path d="M104.204 43.74c-5.645 0-10.243 4.595-10.243 10.243 0 5.647 4.597 10.242 10.243 10.242 5.65 0 10.243-4.594 10.243-10.242 0-5.648-4.594-10.243-10.243-10.243zm0 24.049c-7.612 0-13.804-6.193-13.804-13.807 0-7.613 6.19-13.806 13.804-13.806s13.807 6.194 13.807 13.807c0 7.612-6.193 13.806-13.807 13.806z" fill="#ff6402" opacity="1" data-original="#ff6402"></path><path d="M100.068 51.59a1.794 1.794 0 0 1-1.482-.791 1.747 1.747 0 0 1-.266-.64 1.693 1.693 0 0 1-.034-.35c0-.115.01-.232.034-.347.022-.115.056-.226.102-.334a1.753 1.753 0 0 1 .384-.579 1.796 1.796 0 0 1 2.249-.223c.1.065.189.14.272.223.085.08.158.174.223.27a1.725 1.725 0 0 1 .263.644c.026.113.037.231.037.345a1.787 1.787 0 0 1-1.782 1.782zM108.344 59.903c-.118 0-.236-.012-.35-.037a1.817 1.817 0 0 1-.334-.099 2.32 2.32 0 0 1-.307-.164 1.985 1.985 0 0 1-.272-.222 1.917 1.917 0 0 1-.384-.579 1.606 1.606 0 0 1-.102-.334 1.966 1.966 0 0 1-.034-.347c.001-.118.013-.235.034-.35a1.772 1.772 0 0 1 .266-.64c.066-.099.14-.188.22-.272a1.803 1.803 0 0 1 1.609-.486c.115.022.226.056.334.103.11.043.21.099.306.164a1.687 1.687 0 0 1 .495.492c.063.095.118.2.164.306a1.826 1.826 0 0 1 .136.684 1.796 1.796 0 0 1-.795 1.481 2.06 2.06 0 0 1-.306.164c-.108.043-.22.078-.334.1a1.654 1.654 0 0 1-.347.036zM100.245 59.725a1.782 1.782 0 0 1-1.26-3.042l7.958-7.957a1.779 1.779 0 0 1 2.518 0 1.78 1.78 0 0 1 0 2.52l-7.957 7.957a1.77 1.77 0 0 1-1.259.522zM78.069 51.697a2.287 2.287 0 0 0-2.284 2.285 2.287 2.287 0 0 0 2.283 2.286 2.287 2.287 0 0 0 2.287-2.285 2.287 2.287 0 0 0-2.286-2.286zm0 8.134a5.855 5.855 0 0 1-5.848-5.849 5.855 5.855 0 0 1 5.847-5.848 5.855 5.855 0 0 1 5.85 5.849 5.855 5.855 0 0 1-5.85 5.848zM130.379 51.697a2.288 2.288 0 0 0-2.288 2.285 2.287 2.287 0 0 0 2.287 2.286 2.286 2.286 0 0 0 0-4.57zm0 8.134a5.856 5.856 0 0 1-5.852-5.849 5.856 5.856 0 0 1 5.85-5.848 5.854 5.854 0 0 1 5.848 5.849 5.855 5.855 0 0 1-5.847 5.849z" fill="#ff6402" opacity="1" data-original="#ff6402"></path></g></svg>