<svg xmlns="http://www.w3.org/2000/svg" version="1.1" xmlns:xlink="http://www.w3.org/1999/xlink" width="512" height="512" x="0" y="0" viewBox="0 0 32 32" style="enable-background:new 0 0 512 512" xml:space="preserve" class=""><g><path fill="#ff3c38" d="m28.618 16.807-14.998 11a1.009 1.009 0 0 1-1.497-1.232L17.09 16 12.123 5.425a1.008 1.008 0 0 1 1.497-1.232l14.999 11a1.01 1.01 0 0 1 0 1.614zM14.89 15.698 10.079 4.602A1 1 0 0 0 9.16 4H3.972a1.01 1.01 0 0 0-.918 1.394l4.638 10.79-4.633 10.41A1.01 1.01 0 0 0 3.972 28h5.19a1 1 0 0 0 .914-.597L14.887 16.5a1 1 0 0 0 .003-.8z" data-name="33 Right" opacity="1" data-original="#ff3c38" class=""></path></g></svg>