<svg xmlns="http://www.w3.org/2000/svg" version="1.1" xmlns:xlink="http://www.w3.org/1999/xlink" width="512" height="512" x="0" y="0" viewBox="0 0 512 512" style="enable-background:new 0 0 512 512" xml:space="preserve" class=""><g><path d="M133.113 378.887c71.545 71.545 152.379 119.61 221.777 131.87a80.878 80.878 0 0 0 14.084 1.255c19.976 0 38.513-7.74 53.245-22.473l49.212-49.211a36.178 36.178 0 0 0 0-51.109l-88.41-88.409a36.176 36.176 0 0 0-51.109 0l-44.651 44.652c-42.272-30.629-90.094-78.451-120.723-120.722l44.652-44.652a36.176 36.176 0 0 0 0-51.109L122.781 40.57a36.176 36.176 0 0 0-51.108 0L22.461 89.781C4.313 107.928-3.222 131.84 1.243 157.111c12.257 69.397 60.325 150.231 131.87 221.776zM45.088 112.408 94.3 63.2a4.177 4.177 0 0 1 5.853 0l88.409 88.409a4.2 4.2 0 0 1 0 5.855l-47 47a28.008 28.008 0 0 0-3.029 36.134c33.547 47.169 85.7 99.323 132.869 132.868a28.005 28.005 0 0 0 36.136-3.027l47-47a4.18 4.18 0 0 1 5.856 0l88.409 88.41a4.18 4.18 0 0 1 0 5.854l-49.213 49.211c-10.7 10.7-24.238 14.964-39.135 12.334-62.155-10.984-138.686-56.96-204.715-122.988S43.736 213.7 32.755 151.544c-2.633-14.901 1.632-28.435 12.333-39.136zM512 212.02a16 16 0 0 1-32 0C480 112.756 399.243 32 299.98 32a16 16 0 0 1 0-32C416.889 0 512 95.112 512 212.02zm-212.02-88.243a16 16 0 0 1 0-32A120.379 120.379 0 0 1 420.223 212.02a16 16 0 1 1-32 0 88.342 88.342 0 0 0-88.243-88.243zm-33.83 59.585a16 16 0 0 1 16-16 64.894 64.894 0 0 1 64.821 64.821 16 16 0 0 1-32 0 32.858 32.858 0 0 0-32.821-32.821 16 16 0 0 1-16-16z" fill="#000000" opacity="1" data-original="#000000" class=""></path></g></svg>