<svg xmlns="http://www.w3.org/2000/svg" version="1.1" xmlns:xlink="http://www.w3.org/1999/xlink" width="512" height="512" x="0" y="0" viewBox="0 0 64 64" style="enable-background:new 0 0 512 512" xml:space="preserve" class=""><g><path d="M46 12h6v2h-6zM44.56 6.712l5.545-2.298.766 1.848-5.544 2.298zM13.146 6.268l.766-1.848 5.544 2.298-.766 1.848zM12 11.998h6v2h-6zM58 35h5v2h-5zM58 41h2v10h2V39h-4zM60 53h2v2h-2zM62 21h-2v10h-2v2h4zM60 17h2v2h-2z" fill="#ff6402" opacity="1" data-original="#ff6402" class=""></path><path d="m50.436 24.007 1.164-2.349-5.259-5.258-2.349 1.164c-.238-.155-.488-.29-.732-.436.479-1.305.74-2.696.74-4.128 0-3.41-1.459-6.671-4.002-8.946a12.08 12.08 0 0 0-9.375-2.977c-5.265.588-9.67 4.802-10.475 10.021-.322 2.088-.1 4.15.59 6.033-.243.145-.491.279-.729.434l-2.35-1.165-5.259 5.258 1.164 2.349a21.72 21.72 0 0 0-3.074 7.436L8 32.282v7.436l2.491.84a21.728 21.728 0 0 0 3.074 7.436L12.4 50.342l5.258 5.258 2.354-1.167a21.957 21.957 0 0 0 3.336 1.775l-.348.174V59c0 1.103.897 2 2 2h4c0 1.103.897 2 2 2h2c1.103 0 2-.897 2-2h4c1.103 0 2-.897 2-2v-2.618l-.339-.169a21.83 21.83 0 0 0 3.338-1.774l2.342 1.161 5.258-5.258-1.164-2.349a21.72 21.72 0 0 0 3.074-7.436L56 39.718v-7.436l-2.491-.84a21.713 21.713 0 0 0-3.073-7.435zM22.124 11.402c.67-4.342 4.337-7.848 8.72-8.337.392-.044.782-.065 1.169-.065 2.466 0 4.793.883 6.651 2.544A10.015 10.015 0 0 1 42 13a9.95 9.95 0 0 1-3.714 7.766C36.96 21.84 36.158 23.363 36.027 25H35v-5h3v-5h-1a1.001 1.001 0 0 1 0-2h1V8h-3c0-1.654-1.346-3-3-3s-3 1.346-3 3h-3v5h1a1.001 1.001 0 0 1 0 2h-1v5h3v5h-1.028c-.135-1.63-.952-3.165-2.301-4.269-2.773-2.268-4.099-5.755-3.547-9.329zM29 46.58c-4.699-1.318-8-5.59-8-10.58 0-3.759 1.917-7.207 5-9.216V30c0 1.654 1.346 3 3 3zM29 31c-.551 0-1-.448-1-1v-3h8v3c0 .552-.449 1-1 1zm-1-19.829V10h3V8a1.001 1.001 0 0 1 2 0v2h3v1.171c-1.164.413-2 1.525-2 2.829s.836 2.416 2 2.829V18h-8v-1.171c1.164-.413 2-1.525 2-2.829s-.836-2.416-2-2.829zM33 20v5h-2v-5zm5 10v-3.22c3.08 2.011 5 5.478 5 9.22 0 4.99-3.301 9.262-8 10.58V33c1.654 0 3-1.346 3-3zM20.099 52.07l-.513.343-1.528.757-3.227-3.227 1.045-2.11-.335-.484a19.783 19.783 0 0 1-3.197-7.732l-.106-.58L10 38.282v-4.564l2.237-.754.106-.58a19.762 19.762 0 0 1 3.197-7.732l.335-.484-1.045-2.11 3.227-3.227 2.109 1.045.484-.334c.305-.211.618-.413.934-.606a12.02 12.02 0 0 0 2.82 3.345 4.31 4.31 0 0 1 1.469 2.253A13.005 13.005 0 0 0 19 36c0 4.604 2.384 8.685 6.069 11H25c-1.103 0-2 .897-2 2v2.618l2 1v2.106a20.01 20.01 0 0 1-4.343-2.268zM25 59v-1.382l2-1v-5.236l-2-1V49h4v10zm6 2V33h2v28zm8-2h-4V49h4v1.382l-2 1v5.236l2 1zm15-20.718-2.237.754-.106.58a19.762 19.762 0 0 1-3.197 7.732l-.335.484 1.045 2.11-3.227 3.227-2.103-1.043-.485.336A19.986 19.986 0 0 1 39 54.731v-2.113l2-1V49c0-1.103-.897-2-2-2h-.069A12.954 12.954 0 0 0 45 36c0-4.803-2.677-9.218-6.88-11.467a4.134 4.134 0 0 1 1.424-2.213 11.99 11.99 0 0 0 2.855-3.363c.318.194.645.373.95.584l.484.334 2.109-1.045 3.227 3.227-1.045 2.11.335.484a19.783 19.783 0 0 1 3.197 7.732l.106.58 2.238.755zM1 35h5v2H1zM2 51h2V41h2v-2H2zM2 53h2v2H2zM4 21H2v12h4v-2H4zM2 17h2v2H2z" fill="#ff6402" opacity="1" data-original="#ff6402" class=""></path></g></svg>