<svg xmlns="http://www.w3.org/2000/svg" version="1.1" xmlns:xlink="http://www.w3.org/1999/xlink" width="512" height="512" x="0" y="0" viewBox="0 0 60 60" style="enable-background:new 0 0 512 512" xml:space="preserve" class=""><g><path d="M58.179 34.81a2.709 2.709 0 0 0 1.7-2.222 27.092 27.092 0 0 0 0-5.173 2.7 2.7 0 0 0-1.692-2.223L55.463 24.1a25.926 25.926 0 0 0-3.3-7.923l1.151-2.71a2.662 2.662 0 0 0-.391-2.789 30.455 30.455 0 0 0-3.618-3.617 2.65 2.65 0 0 0-2.783-.389l-2.71 1.162A25.878 25.878 0 0 0 35.9 4.54L34.8 1.8A2.705 2.705 0 0 0 32.568.117a28.121 28.121 0 0 0-5.143 0 2.711 2.711 0 0 0-2.234 1.694L24.1 4.54a25.878 25.878 0 0 0-7.911 3.294l-2.713-1.161a2.654 2.654 0 0 0-2.788.39 30.13 30.13 0 0 0-3.625 3.627 2.653 2.653 0 0 0-.383 2.772l1.153 2.715a25.926 25.926 0 0 0-3.3 7.923l-2.711 1.09a2.707 2.707 0 0 0-1.7 2.223 27.092 27.092 0 0 0 0 5.173 2.706 2.706 0 0 0 1.692 2.222L4.537 35.9a25.931 25.931 0 0 0 3.3 7.922l-1.151 2.71a2.659 2.659 0 0 0 .389 2.786 30.016 30.016 0 0 0 3.619 3.619 2.682 2.682 0 0 0 2.784.389l2.714-1.161A25.9 25.9 0 0 0 24.1 55.46l1.1 2.74a2.707 2.707 0 0 0 2.236 1.684c.882.078 1.768.117 2.632.117s1.713-.039 2.512-.118a2.709 2.709 0 0 0 2.233-1.7l.647-1.625a14.992 14.992 0 0 0 21.103-21.102Zm-25.8 23.083a26.348 26.348 0 0 1-4.768 0 .716.716 0 0 1-.566-.448l-1.29-3.219a1 1 0 0 0-.724-.607 23.918 23.918 0 0 1-8.204-3.419 1 1 0 0 0-.94-.082l-3.2 1.371a.671.671 0 0 1-.707-.083 27.91 27.91 0 0 1-3.38-3.381.669.669 0 0 1-.077-.7l1.36-3.2a1 1 0 0 0-.083-.938 23.951 23.951 0 0 1-3.418-8.217 1 1 0 0 0-.606-.723L2.56 32.95a.7.7 0 0 1-.445-.557 25.184 25.184 0 0 1 0-4.787.7.7 0 0 1 .448-.558l3.21-1.29a1 1 0 0 0 .606-.722A23.934 23.934 0 0 1 9.8 16.819a1 1 0 0 0 .083-.939l-1.362-3.2a.67.67 0 0 1 .083-.706 27.99 27.99 0 0 1 3.387-3.386.669.669 0 0 1 .7-.072l3.2 1.37a1 1 0 0 0 .94-.082 23.921 23.921 0 0 1 8.208-3.418 1 1 0 0 0 .724-.607l1.285-3.209a.719.719 0 0 1 .573-.457 26.638 26.638 0 0 1 4.769 0 .712.712 0 0 1 .565.447l1.29 3.219a1 1 0 0 0 .724.607A23.921 23.921 0 0 1 43.173 9.8a1 1 0 0 0 .94.082l3.2-1.371a.677.677 0 0 1 .707.082 28.44 28.44 0 0 1 3.38 3.38.673.673 0 0 1 .077.707l-1.36 3.2a1 1 0 0 0 .083.939 23.934 23.934 0 0 1 3.418 8.217 1 1 0 0 0 .606.722l3.214 1.292a.7.7 0 0 1 .444.557 25.194 25.194 0 0 1 0 4.788.7.7 0 0 1-.447.556l-2.38.953a15.04 15.04 0 0 0-3.129-2.2c.045-.559.074-1.129.074-1.704a22 22 0 1 0-22 22c.592 0 1.166-.03 1.709-.072a15.047 15.047 0 0 0 2.2 3.13l-.948 2.377a.724.724 0 0 1-.578.458ZM30 43c.052 0 .1-.005.15-.005A15.052 15.052 0 0 0 30 45c0 .333.029.659.05.986a4.531 4.531 0 0 1-3.82-1.827 3.7 3.7 0 0 1-.23-.377v-1.619A9.944 9.944 0 0 0 30 43Zm-5.512 2.145c.033.051.059.1.1.151A6.442 6.442 0 0 0 29.952 48c.115 0 .232-.011.348-.016a14.862 14.862 0 0 0 .567 1.993c-.288.011-.577.022-.867.022a19.878 19.878 0 0 1-11.242-3.471c.25-.083.5-.173.758-.234Zm6.075-4.165c-.181.012-.367.02-.563.02a8.013 8.013 0 0 1-8-8 1 1 0 0 0-1-1 2 2 0 0 1 0-4 1 1 0 0 0 1-1 2.245 2.245 0 0 1 3.206-2.064 11.369 11.369 0 0 0 9.591 0 2.186 2.186 0 0 1 2.14.136A2.273 2.273 0 0 1 38 27a1 1 0 0 0 1 1 1.972 1.972 0 0 1 1.9 2.583A15.039 15.039 0 0 0 30.563 40.98ZM41 26.548a3.942 3.942 0 0 0-1.094-.444 4.26 4.26 0 0 0-1.9-2.723 4.2 4.2 0 0 0-4.062-.257 9.368 9.368 0 0 1-7.893 0 4.24 4.24 0 0 0-5.959 2.98 3.942 3.942 0 0 0-1.092.444V25a11 11 0 0 1 22 0ZM43 30v-5a13 13 0 0 0-26 0v5a4.012 4.012 0 0 0 3.038 3.884A9.917 9.917 0 0 0 24 40.985v2.22l-4.938 1.142a10.373 10.373 0 0 0-2.119.769A19.989 19.989 0 1 1 50 30c0 .29-.011.579-.022.867a14.337 14.337 0 0 0-6.987-.716C42.993 30.1 43 30.05 43 30Zm2 28a13 13 0 1 1 13-13 13.015 13.015 0 0 1-13 13Z" fill="#ff6402" opacity="1" data-original="#ff6402"></path><path d="m51.127 40.349-2.505-.377L47.5 37.6a2.747 2.747 0 0 0-4.992 0l-1.126 2.372-2.505.377a2.782 2.782 0 0 0-2.223 1.9 2.88 2.88 0 0 0 .676 2.944l1.835 1.856-.434 2.634a2.848 2.848 0 0 0 1.157 2.812 2.71 2.71 0 0 0 2.886.172L45 51.443l2.23 1.219a2.709 2.709 0 0 0 2.886-.172 2.849 2.849 0 0 0 1.157-2.813l-.434-2.633 1.835-1.857a2.878 2.878 0 0 0 .676-2.943 2.782 2.782 0 0 0-2.223-1.895Zm.123 3.432L49.058 46a1 1 0 0 0-.275.866L49.3 50a.854.854 0 0 1-.343.857.692.692 0 0 1-.769.047l-2.71-1.48a1 1 0 0 0-.958 0l-2.71 1.48a.7.7 0 0 1-.769-.047A.853.853 0 0 1 40.7 50l.518-3.136a1 1 0 0 0-.276-.864l-2.192-2.218a.881.881 0 0 1-.2-.906.781.781 0 0 1 .623-.549l3.03-.457a1 1 0 0 0 .754-.56l1.355-2.853a.748.748 0 0 1 1.378 0l1.355 2.853a1 1 0 0 0 .754.56l3.03.457a.781.781 0 0 1 .623.549.879.879 0 0 1-.202.905Z" fill="#ff6402" opacity="1" data-original="#ff6402"></path></g></svg>