<svg xmlns="http://www.w3.org/2000/svg" version="1.1" xmlns:xlink="http://www.w3.org/1999/xlink" width="512" height="512" x="0" y="0" viewBox="0 0 64 64" style="enable-background:new 0 0 512 512" xml:space="preserve" class=""><g><path fill="#231f20" d="M54.51 12.18A30 30 0 0 0 32 2h-.38a2.39 2.39 0 0 0-.42 0A30 30 0 0 0 10 52.36 29.71 29.71 0 0 0 31.2 62a2.2 2.2 0 0 0 .42 0H32a30 30 0 0 0 22.51-49.82zm-2.06 35.88a29.87 29.87 0 0 0-6.24-4.47A37.54 37.54 0 0 0 47.94 34h10a25.89 25.89 0 0 1-5.49 14.06zM6.08 34h10a37.55 37.55 0 0 0 1.74 9.6 29.8 29.8 0 0 0-6.24 4.46A25.89 25.89 0 0 1 6.08 34zm5-17.48a29.61 29.61 0 0 0 6.42 4.74A37.58 37.58 0 0 0 16.06 30h-10a25.92 25.92 0 0 1 5.06-13.48zM34 8.39a29.79 29.79 0 0 1 7.49 10.81A25.69 25.69 0 0 1 34 20.92zm-4 12.53a25.54 25.54 0 0 1-7.49-1.71A29.79 29.79 0 0 1 30 8.39zM21.21 23A30.15 30.15 0 0 0 30 24.93V30h-9.94a33.64 33.64 0 0 1 1.15-7zm-1.15 11H30v6.07a29.51 29.51 0 0 0-8.54 1.84 33.6 33.6 0 0 1-1.4-7.91zM30 44.08v11.53a29.84 29.84 0 0 1-7.13-10A25.54 25.54 0 0 1 30 44.08zm4 0a25.7 25.7 0 0 1 7.13 1.58 29.83 29.83 0 0 1-7.13 10zm8.54-2.17A29.66 29.66 0 0 0 34 40.07V34h9.94a33.6 33.6 0 0 1-1.4 7.92zM34 30v-5.07A29.66 29.66 0 0 0 42.79 23a33.63 33.63 0 0 1 1.15 7zm11.09-12.56A34.09 34.09 0 0 0 38 6.72a26.1 26.1 0 0 1 12.21 6.77 25.78 25.78 0 0 1-5.12 3.95zm-26.19 0a25.62 25.62 0 0 1-5.15-3.94A26 26 0 0 1 26 6.72a34.09 34.09 0 0 0-7.09 10.72zm.34 29.93A34.18 34.18 0 0 0 26 57.3 25.67 25.67 0 0 1 14.27 51a25.83 25.83 0 0 1 4.98-3.63zm25.5 0a25.88 25.88 0 0 1 5 3.65A26.16 26.16 0 0 1 38 57.28a34.17 34.17 0 0 0 6.75-9.92zM47.94 30a37.57 37.57 0 0 0-1.48-8.72 29.78 29.78 0 0 0 6.41-4.76 25.92 25.92 0 0 1 5 13.48z" opacity="1" data-original="#231f20" class=""></path></g></svg>