<svg xmlns="http://www.w3.org/2000/svg" version="1.1" xmlns:xlink="http://www.w3.org/1999/xlink" width="20" height="20" x="0" y="0" viewBox="0 0 512 512" style="enable-background:new 0 0 512 512" xml:space="preserve" class=""><g><path d="M7.813 509.935h132.571V161.322H7.813zm30-318.613h72.571v288.612H37.813zM74.099 2.065C33.24 2.065 0 35.306 0 76.164s33.24 74.1 74.099 74.1 74.1-33.241 74.1-74.1-33.242-74.099-74.1-74.099zM30 76.164c0-24.316 19.782-44.099 44.099-44.099s44.1 19.782 44.1 44.099-19.783 44.1-44.1 44.1S30 100.48 30 76.164zM511.679 270.79c-4.718-67.855-61.318-120.144-131.489-120.144-31.387 0-61.016 10.912-84.361 30.274v-19.6h-127.03v348.613h132.572V319.269c0-21.488 17.481-38.97 38.97-38.97 21.487 0 38.969 17.482 38.969 38.979l.128 190.656H512V271.112zM271.371 479.935h-72.572V191.321h67.029v42.847l24.005.138 4.46-6.924c18.85-29.265 50.961-46.735 85.897-46.735 55.836 0 100.543 42.602 101.78 96.985l.03 202.303h-72.582l-.108-160.666c0-38.03-30.94-68.97-68.969-68.97-38.03 0-68.97 30.94-68.97 68.97z" fill="#0077B5" opacity="1" data-original="#0077B5" class=""></path></g></svg>