<svg xmlns="http://www.w3.org/2000/svg" version="1.1" xmlns:xlink="http://www.w3.org/1999/xlink" width="512" height="512" x="0" y="0" viewBox="0 0 682.667 682.667" style="enable-background:new 0 0 512 512" xml:space="preserve" class=""><g><defs><clipPath id="a" clipPathUnits="userSpaceOnUse"><path d="M0 512h512V0H0Z" fill="#ed3237" opacity="1" data-original="#ed3237"></path></clipPath></defs><g clip-path="url(#a)" transform="matrix(1.33333 0 0 -1.33333 0 682.667)"><path d="M0 0c-12.19-4.658-25.418-7.216-39.246-7.216 0-21.709.469-43.315 1.696-64.597m436.598 0c1.229 21.282 1.704 42.887 1.704 64.597-60.751 0-110 49.248-110 109.999H70.753c0-14.5-2.811-28.343-7.909-41.019M-18.505-194.62c25.9-90.328 81.991-163.175 199.258-194.597 117.266 31.421 173.354 104.27 199.254 194.597" style="stroke-width:20;stroke-linecap:round;stroke-linejoin:round;stroke-miterlimit:22.926;stroke-dasharray:none;stroke-opacity:1" transform="translate(75.247 399.218)" fill="none" stroke="#ed3237" stroke-width="20" stroke-linecap="round" stroke-linejoin="round" stroke-miterlimit="22.926" stroke-dasharray="none" stroke-opacity="" data-original="#ed3237" class=""></path><path d="M0 0c85.922 0 156 70.078 156 156S85.922 312 0 312s-156-70.078-156-156S-85.922 0 0 0Z" style="stroke-width:20;stroke-linecap:round;stroke-linejoin:round;stroke-miterlimit:22.926;stroke-dasharray:none;stroke-opacity:1" transform="translate(256 110.001)" fill="none" stroke="#ed3237" stroke-width="20" stroke-linecap="round" stroke-linejoin="round" stroke-miterlimit="22.926" stroke-dasharray="none" stroke-opacity="" data-original="#ed3237" class=""></path><path d="M0 0h-100.747l30.998 60-30.998 60H0m290.508 0h100.747l-30.999-60 30.999-60H290.508" style="stroke-width:20;stroke-linecap:round;stroke-linejoin:round;stroke-miterlimit:22.926;stroke-dasharray:none;stroke-opacity:1" transform="translate(110.746 206.001)" fill="none" stroke="#ed3237" stroke-width="20" stroke-linecap="round" stroke-linejoin="round" stroke-miterlimit="22.926" stroke-dasharray="none" stroke-opacity="" data-original="#ed3237" class=""></path><path d="M0 0v-16.5" style="stroke-width:20;stroke-linecap:round;stroke-linejoin:round;stroke-miterlimit:22.926;stroke-dasharray:none;stroke-opacity:1" transform="translate(256 418.502)" fill="none" stroke="#ed3237" stroke-width="20" stroke-linecap="round" stroke-linejoin="round" stroke-miterlimit="22.926" stroke-dasharray="none" stroke-opacity="" data-original="#ed3237" class=""></path><path d="m0 0 8.25-14.289" style="stroke-width:20;stroke-linecap:round;stroke-linejoin:round;stroke-miterlimit:22.926;stroke-dasharray:none;stroke-opacity:1" transform="translate(179.75 398.07)" fill="none" stroke="#ed3237" stroke-width="20" stroke-linecap="round" stroke-linejoin="round" stroke-miterlimit="22.926" stroke-dasharray="none" stroke-opacity="" data-original="#ed3237" class=""></path><path d="m0 0 14.29-8.25" style="stroke-width:20;stroke-linecap:round;stroke-linejoin:round;stroke-miterlimit:22.926;stroke-dasharray:none;stroke-opacity:1" transform="translate(123.931 342.251)" fill="none" stroke="#ed3237" stroke-width="20" stroke-linecap="round" stroke-linejoin="round" stroke-miterlimit="22.926" stroke-dasharray="none" stroke-opacity="" data-original="#ed3237" class=""></path><path d="M0 0h16.5" style="stroke-width:20;stroke-linecap:round;stroke-linejoin:round;stroke-miterlimit:22.926;stroke-dasharray:none;stroke-opacity:1" transform="translate(103.5 266.001)" fill="none" stroke="#ed3237" stroke-width="20" stroke-linecap="round" stroke-linejoin="round" stroke-miterlimit="22.926" stroke-dasharray="none" stroke-opacity="" data-original="#ed3237" class=""></path><path d="m0 0 14.29 8.25" style="stroke-width:20;stroke-linecap:round;stroke-linejoin:round;stroke-miterlimit:22.926;stroke-dasharray:none;stroke-opacity:1" transform="translate(123.931 189.751)" fill="none" stroke="#ed3237" stroke-width="20" stroke-linecap="round" stroke-linejoin="round" stroke-miterlimit="22.926" stroke-dasharray="none" stroke-opacity="" data-original="#ed3237" class=""></path><path d="m0 0 8.25 14.29" style="stroke-width:20;stroke-linecap:round;stroke-linejoin:round;stroke-miterlimit:22.926;stroke-dasharray:none;stroke-opacity:1" transform="translate(179.75 133.932)" fill="none" stroke="#ed3237" stroke-width="20" stroke-linecap="round" stroke-linejoin="round" stroke-miterlimit="22.926" stroke-dasharray="none" stroke-opacity="" data-original="#ed3237" class=""></path><path d="M0 0v16.5" style="stroke-width:20;stroke-linecap:round;stroke-linejoin:round;stroke-miterlimit:22.926;stroke-dasharray:none;stroke-opacity:1" transform="translate(256 113.501)" fill="none" stroke="#ed3237" stroke-width="20" stroke-linecap="round" stroke-linejoin="round" stroke-miterlimit="22.926" stroke-dasharray="none" stroke-opacity="" data-original="#ed3237" class=""></path><path d="m0 0-8.25 14.29" style="stroke-width:20;stroke-linecap:round;stroke-linejoin:round;stroke-miterlimit:22.926;stroke-dasharray:none;stroke-opacity:1" transform="translate(332.25 133.932)" fill="none" stroke="#ed3237" stroke-width="20" stroke-linecap="round" stroke-linejoin="round" stroke-miterlimit="22.926" stroke-dasharray="none" stroke-opacity="" data-original="#ed3237" class=""></path><path d="m0 0-14.289 8.25" style="stroke-width:20;stroke-linecap:round;stroke-linejoin:round;stroke-miterlimit:22.926;stroke-dasharray:none;stroke-opacity:1" transform="translate(388.069 189.751)" fill="none" stroke="#ed3237" stroke-width="20" stroke-linecap="round" stroke-linejoin="round" stroke-miterlimit="22.926" stroke-dasharray="none" stroke-opacity="" data-original="#ed3237" class=""></path><path d="M0 0h-16.5" style="stroke-width:20;stroke-linecap:round;stroke-linejoin:round;stroke-miterlimit:22.926;stroke-dasharray:none;stroke-opacity:1" transform="translate(408.5 266.001)" fill="none" stroke="#ed3237" stroke-width="20" stroke-linecap="round" stroke-linejoin="round" stroke-miterlimit="22.926" stroke-dasharray="none" stroke-opacity="" data-original="#ed3237" class=""></path><path d="m0 0-14.289-8.25" style="stroke-width:20;stroke-linecap:round;stroke-linejoin:round;stroke-miterlimit:22.926;stroke-dasharray:none;stroke-opacity:1" transform="translate(388.069 342.251)" fill="none" stroke="#ed3237" stroke-width="20" stroke-linecap="round" stroke-linejoin="round" stroke-miterlimit="22.926" stroke-dasharray="none" stroke-opacity="" data-original="#ed3237" class=""></path><path d="m0 0-8.25-14.289" style="stroke-width:20;stroke-linecap:round;stroke-linejoin:round;stroke-miterlimit:22.926;stroke-dasharray:none;stroke-opacity:1" transform="translate(332.25 398.07)" fill="none" stroke="#ed3237" stroke-width="20" stroke-linecap="round" stroke-linejoin="round" stroke-miterlimit="22.926" stroke-dasharray="none" stroke-opacity="" data-original="#ed3237" class=""></path><path d="M0 0c11.015 0 20 8.985 20 20 0 11.016-8.985 20-20 20-11.016 0-20-8.984-20-20C-20 8.985-11.016 0 0 0Z" style="stroke-width:20;stroke-linecap:round;stroke-linejoin:round;stroke-miterlimit:22.926;stroke-dasharray:none;stroke-opacity:1" transform="translate(256 246.001)" fill="none" stroke="#ed3237" stroke-width="20" stroke-linecap="round" stroke-linejoin="round" stroke-miterlimit="22.926" stroke-dasharray="none" stroke-opacity="" data-original="#ed3237" class=""></path><path d="M0 0v-75.999" style="stroke-width:20;stroke-linecap:round;stroke-linejoin:round;stroke-miterlimit:22.926;stroke-dasharray:none;stroke-opacity:1" transform="translate(256 362)" fill="none" stroke="#ed3237" stroke-width="20" stroke-linecap="round" stroke-linejoin="round" stroke-miterlimit="22.926" stroke-dasharray="none" stroke-opacity="" data-original="#ed3237" class=""></path><path d="M0 0h55.998" style="stroke-width:20;stroke-linecap:round;stroke-linejoin:round;stroke-miterlimit:22.926;stroke-dasharray:none;stroke-opacity:1" transform="translate(276 266.001)" fill="none" stroke="#ed3237" stroke-width="20" stroke-linecap="round" stroke-linejoin="round" stroke-miterlimit="22.926" stroke-dasharray="none" stroke-opacity="" data-original="#ed3237" class=""></path><path d="M0 0h.007" style="stroke-width:20;stroke-linecap:round;stroke-linejoin:round;stroke-miterlimit:2.613;stroke-dasharray:none;stroke-opacity:1" transform="translate(113.102 423.552)" fill="none" stroke="#ed3237" stroke-width="20" stroke-linecap="round" stroke-linejoin="round" stroke-miterlimit="2.613" stroke-dasharray="none" stroke-opacity="" data-original="#ed3237" class=""></path></g></g></svg>