<svg xmlns="http://www.w3.org/2000/svg" version="1.1" xmlns:xlink="http://www.w3.org/1999/xlink" width="512" height="512" x="0" y="0" viewBox="0 0 512 512" style="enable-background:new 0 0 512 512" xml:space="preserve" class=""><g><g fill-rule="evenodd" clip-rule="evenodd"><path fill="#f6b600" d="M482.39 16h-81.229v42.347h81.229l-21.174-21.173z" opacity="1" data-original="#f6b600"></path><path fill="#397399" d="M396.161 16h10v346.219h-10zM152.801 294.974l-20.236 60.148c41.293-17.049 75.528 14.264 67.431 76.228l-31.228-.354c8.944-49.475-18.975-63.189-75.491-26.734l-27.689 63.911H34.414l42.274-99.68 34.135-94.09 79.61-27.536c11.494-3.976 18.657.745 21.245 8.209 2.573 7.421.63 17.724-11.214 22.137z" opacity="1" data-original="#397399" class=""></path><path fill="#00bfa9" d="M353.792 271.778h4.947c8.922 0 26.085 13.547 26.085 22.469v73.913h-32.442V312.554c-12.793-1.345-37.83.329-46.677 12.574l-58.416 97.9h-33.274l82.134-144.733 1.237-36.836-61.84 22.889c-26.588 9.841-31.481-22.03-15.179-28.473l84.609-33.436 27.718-18.472 68.467-75.266c4.809-5.287 28.305 17.766 11.33 36.37l-58.699 64.335z" opacity="1" data-original="#00bfa9"></path><path fill="#c90a4f" d="M29.61 463.133h136.217V496H29.61z" opacity="1" data-original="#c90a4f"></path><path fill="#fcb500" d="M165.827 423.027h136.217V496H165.827z" opacity="1" data-original="#fcb500" class=""></path><path fill="#019fce" d="M302.043 362.219H438.26V496H302.043z" opacity="1" data-original="#019fce"></path><circle cx="299.019" cy="141.335" r="27.942" fill="#00bfa9" transform="rotate(-76.7 299.109 141.365)" opacity="1" data-original="#00bfa9"></circle><circle cx="157.838" cy="211.89" r="27.942" fill="#397399" transform="rotate(-82 157.951 211.966)" opacity="1" data-original="#397399" class=""></circle><path fill="#941234" d="M138.521 463.133h27.305V496h-27.305z" opacity="1" data-original="#941234"></path><path fill="#dc9602" d="M270.521 423.027h31.522V496h-31.522z" opacity="1" data-original="#dc9602"></path><path fill="#397399" d="M401.521 362.219h36.739V496h-36.739z" opacity="1" data-original="#397399" class=""></path></g></g></svg>