<svg xmlns="http://www.w3.org/2000/svg" version="1.1" xmlns:xlink="http://www.w3.org/1999/xlink" width="512" height="512" x="0" y="0" viewBox="0 0 66 66" style="enable-background:new 0 0 512 512" xml:space="preserve" class=""><g><path fill="#e6e6e8" d="M4.1 12h46.2v53H4.1z" opacity="1" data-original="#e6e6e8"></path><path fill="#d4d8db" d="M27.2 12h23.1v53H27.2z" opacity="1" data-original="#d4d8db"></path><path fill="#61c2a6" d="M11.6 22.8h9.2V32h-9.2z" opacity="1" data-original="#61c2a6"></path><path fill="#e8664a" d="M11.6 36.3h9.2v9.2h-9.2z" opacity="1" data-original="#e8664a"></path><path fill="#fad22c" d="M11.6 49.9h9.2v9.2h-9.2z" opacity="1" data-original="#fad22c"></path><g fill="#1e87b7"><path d="M23.6 25.1h17v4.5h-17zM23.6 38.7h17v4.5h-17zM23.6 52.3h17v4.5h-17z" fill="#1e87b7" opacity="1" data-original="#1e87b7"></path></g><path fill="#1576ac" d="M27.2 25.1h13.4v4.5H27.2zM27.2 38.7h13.4v4.5H27.2zM27.2 52.3h13.4v4.5H27.2z" opacity="1" data-original="#1576ac"></path><path fill="#465c6a" d="M15.6 43.2 13 40.7l1.4-1.4 1.2 1.2L18 38l1.3 1.4zM35.8 8H18.6c-.6 0-1.2.5-1.2 1.2v10.2H37V9.2c0-.7-.5-1.2-1.2-1.2z" opacity="1" data-original="#465c6a"></path><path fill="#fad22c" d="M33.8 17.3h-3.3V5.6c1.2 0 2.2-1.1 2.2-2.3 0-1.3-1-2.3-2.3-2.3h-6.6c-1.3 0-2.3 1-2.3 2.3 0 1.2 1 2.3 2.2 2.3v11.7h-3.3c-.4 0-.7.3-.7.7s.3.7.7.7h3.9c.4 0 .7-.3.7-.7V4.9c0-.4-.3-.7-.7-.7h-.6c-.5 0-.9-.4-.9-.9s.4-.9.9-.9h6.6c.5 0 .9.4.9.9s-.2 1-.7 1h-.6c-.4 0-.7.3-.7.7v13c0 .4.3.7.7.7h3.9c.4 0 .7-.3.7-.7s-.3-.7-.7-.7z" opacity="1" data-original="#fad22c"></path><g fill="#3b4c56"><path d="M17.4 16.3h6v3.1h-6zM31 16.3h6v3.1h-6z" fill="#3b4c56" opacity="1" data-original="#3b4c56"></path></g><circle cx="46.7" cy="48.1" r="15.1" fill="#d95239" opacity="1" data-original="#d95239"></circle><path fill="#e8664a" d="M31.6 48.1c0 8.4 6.8 15.1 15.1 15.1V33c-8.3 0-15.1 6.8-15.1 15.1z" opacity="1" data-original="#e8664a"></path><circle cx="46.7" cy="48.1" r="11.2" fill="#d4d8db" opacity="1" data-original="#d4d8db"></circle><circle cx="46.7" cy="48.1" r="7.8" fill="#e6e6e8" opacity="1" data-original="#e6e6e8"></circle><circle cx="46.7" cy="48.1" r="3.5" fill="#e8664a" opacity="1" data-original="#e8664a"></circle><path fill="#e6e6e8" d="M46.7 37v3.4c4.3 0 7.8 3.5 7.8 7.8S51 56 46.7 56v3.4c6.2 0 11.2-5 11.2-11.2S52.9 37 46.7 37z" opacity="1" data-original="#e6e6e8"></path><path fill="#e8664a" d="M50.2 48.1c0 1.9-1.6 3.5-3.5 3.5v4.3c4.3 0 7.8-3.5 7.8-7.8s-3.5-7.8-7.8-7.8v4.3c2 0 3.5 1.6 3.5 3.5z" opacity="1" data-original="#e8664a"></path><path fill="#d95239" d="M38.9 48.1c0 4.3 3.5 7.8 7.8 7.8v-4.3c-1.9 0-3.5-1.6-3.5-3.5s1.6-3.5 3.5-3.5v-4.3c-4.3 0-7.8 3.5-7.8 7.8z" opacity="1" data-original="#d95239"></path><path fill="#d4d8db" d="M50.2 48.1c0-1.9-1.6-3.5-3.5-3.5v7c2 0 3.5-1.5 3.5-3.5z" opacity="1" data-original="#d4d8db"></path><path fill="#e6e6e8" d="M43.2 48.1c0 1.9 1.6 3.5 3.5 3.5v-7c-1.9 0-3.5 1.6-3.5 3.5z" opacity="1" data-original="#e6e6e8"></path><path fill="#465c6a" d="M59.9 35.2c-.5-.5-1.3-.5-1.8 0L46.5 46.8c-.5.5-.5 1.3 0 1.8s1.3.5 1.8 0L59.9 37c.4-.5.4-1.3 0-1.8z" opacity="1" data-original="#465c6a"></path><path fill="#3b4c56" d="M59.9 35.2c-.1 0-.1 0 0 0L46.5 48.5c.5.5 1.3.5 1.8 0L59.9 37c.4-.5.4-1.3 0-1.8z" opacity="1" data-original="#3b4c56"></path><path fill="#e0b624" d="m61.5 38-2.4-.3-4.9 4.9 2.7.3c.1 0 .1 0 .2-.1l4.5-4.5c.2-.1.1-.3-.1-.3z" opacity="1" data-original="#e0b624"></path><path fill="#fad22c" d="M57.1 33.5c0-.2-.2-.2-.3-.1l-4.5 4.5s-.1.1-.1.2l.3 2.7 4.9-4.9z" opacity="1" data-original="#fad22c"></path></g></svg>