<svg xmlns="http://www.w3.org/2000/svg" version="1.1" xmlns:xlink="http://www.w3.org/1999/xlink" width="100" height="100" x="0" y="0" viewBox="0 0 500 500" style="enable-background:new 0 0 512 512" xml:space="preserve" class=""><g><path fill-rule="evenodd" d="M388.438 63.995c4.334 4.343 1.186 11.702-4.857 11.702-1.744 0-3.5-.67-4.84-2.016L352.223 47.17l.002 96.85c.003 135.437-110.611 246.066-246.046 246.07l-31.144.001a6.86 6.86 0 0 1-6.856-6.856 6.853 6.853 0 0 1 6.856-6.856l31.144-.001c128.114-.003 232.338-104.237 232.334-232.357l-.002-96.85-26.505 26.512a6.854 6.854 0 0 1-9.698 0c-2.68-2.668-2.68-7.006 0-9.686L340.521 25.8c2.664-2.705 7.039-2.699 9.698 0zm51.305 398.516-34.297.001-.009-356.619 34.297-.001zm6.847-370.325-48.009.001a6.85 6.85 0 0 0-6.85 6.85l.009 370.325c0 3.783 3.067 6.856 6.85 6.856l48.009-.001a6.86 6.86 0 0 0 6.856-6.856l-.009-370.326c0-3.783-3.073-6.849-6.856-6.849zM334.27 462.514l-.003-114.946-34.297.001.003 114.946zm6.853-128.658-48.003.001a6.857 6.857 0 0 0-6.856 6.856l.003 128.652a6.857 6.857 0 0 0 6.856 6.856l48.003-.001a6.86 6.86 0 0 0 6.856-6.856l-.003-128.652a6.86 6.86 0 0 0-6.856-6.856zM228.797 462.517l-34.291.001-.001-47.57 34.291-.001zm6.855-61.283-48.003.001a6.86 6.86 0 0 0-6.856 6.856l.001 61.276a6.86 6.86 0 0 0 6.856 6.856l48.003-.001a6.857 6.857 0 0 0 6.856-6.856l-.002-61.276a6.855 6.855 0 0 0-6.855-6.856zM123.33 462.519l-34.297.001-.001-34.297 34.297-.001zm6.855-48.009-48.009.001a6.86 6.86 0 0 0-6.856 6.856l.001 48.003a6.86 6.86 0 0 0 6.856 6.856l48.009-.001c3.783 0 6.85-3.073 6.85-6.856l-.001-48.003a6.855 6.855 0 0 0-6.85-6.856zM60.252 226.016c0 12.88 10.478 23.346 23.346 23.346 2.834 0 5.657-.885 8.335 2.172 3.144 3.589.843 6.596.843 11.656 0 18.518 20.585 29.533 35.95 19.643 4.391-2.827 10.298.137 10.558 5.441 1.271 25.904 27.761 42.254 51.285 32.684l-.003-113.635-39.738.001c-2.564 13.371-12.441 24.663-25.777 28.649a7.027 7.027 0 0 1-1.97.289c-7.786 0-9.513-11.159-1.953-13.423 9.796-2.935 16.64-12.13 16.64-22.371 0-10.235-6.845-19.441-16.641-22.364-3.627-1.086-5.695-4.909-4.609-8.536 1.086-3.621 4.904-5.689 8.531-4.598 13.336 3.979 23.214 15.271 25.778 28.642l39.738-.001-.003-113.634c-23.509-9.562-50.012 6.779-51.283 32.693-.257 5.248-6.141 8.267-10.558 5.424a23.288 23.288 0 0 0-12.603-3.691c-15.134 0-26.242 14.231-22.687 28.868 1.112 4.576-2.675 8.944-7.376 8.433-13.668-1.488-25.806 9.325-25.806 23.208 0 8.063 4.078 15.45 10.905 19.765 4.275 2.696 4.246 8.917 0 11.592-6.825 4.308-10.903 11.696-10.902 19.747zm144.027 13.114c18.402-3.252 32.42-19.35 32.419-38.665 0-19.314-14.019-35.406-32.421-38.663zm7.338-132.47h-7.341l.001 41.28c25.986 3.378 46.133 25.632 46.133 52.524.001 26.892-20.145 49.148-46.131 52.521l.001 41.286h7.341l7.081-21.781a6.877 6.877 0 0 1 4.112-4.303 72.238 72.238 0 0 0 20.544-11.876 6.809 6.809 0 0 1 5.782-1.415l22.434 4.77 14.19-24.6-15.335-17.033a6.867 6.867 0 0 1-1.675-5.707 72.07 72.07 0 0 0-.001-23.733 6.854 6.854 0 0 1 1.675-5.706l15.334-17.039-14.192-24.588-22.439 4.772a6.87 6.87 0 0 1-5.787-1.415 72.151 72.151 0 0 0-20.533-11.874 6.825 6.825 0 0 1-4.113-4.303zM79.064 263.189c.001 25.024 24.345 42.689 47.923 35.428 7.937 32.447 44.534 48.411 73.689 32.713a6.855 6.855 0 0 0 3.604-6.042v-17.305h10.703a9.054 9.054 0 0 0 8.641-6.279l7.121-21.919a85.575 85.575 0 0 0 18.696-10.801l22.561 4.788a9.071 9.071 0 0 0 9.761-4.344l17.558-30.41a9.064 9.064 0 0 0-1.115-10.622l-15.439-17.142c.9-7.162.901-14.429-.001-21.585l15.439-17.137a9.064 9.064 0 0 0 1.114-10.622L281.76 131.5a9.054 9.054 0 0 0-9.761-4.349l-22.566 4.8a85.517 85.517 0 0 0-18.685-10.806l-7.128-21.919a9.06 9.06 0 0 0-8.641-6.278h-10.703v-17.31c0-2.524-1.38-4.84-3.604-6.036-29.18-15.699-65.757.278-73.688 32.716-23.54-7.209-47.922 10.129-47.922 35.823-18.298 2.242-32.518 17.877-32.517 36.77 0 9.692 3.708 18.76 10.201 25.558-6.492 6.798-10.2 15.867-10.199 25.547 0 18.904 14.221 34.545 32.519 36.78-.002.128-.002.261-.002.393z" clip-rule="evenodd" fill="#f7921e" opacity="1" data-original="#f7921e"></path></g></svg>