<svg xmlns="http://www.w3.org/2000/svg" version="1.1" xmlns:xlink="http://www.w3.org/1999/xlink" width="100" height="100" x="0" y="0" viewBox="0 0 16.933 16.933" style="enable-background:new 0 0 512 512" xml:space="preserve" class=""><g><path d="M2.646.53a.28.28 0 0 0-.199.09L.595 2.735a.265.265 0 0 0 .2.44h.793v.793c.008.345.521.345.529 0v-1.06a.265.265 0 0 0-.264-.263h-.476l1.269-1.45 1.272 1.45H3.44a.265.265 0 0 0-.266.264v.794c0 .354.53.354.53 0v-.529h.792c.228 0 .35-.268.2-.439L2.845.62a.266.266 0 0 0-.2-.09zm5.82 0a.26.26 0 0 0-.264.263v.53c0 .176.132.264.265.264.132 0 .264-.088.264-.265V.793A.26.26 0 0 0 8.467.53zm5.821 0a.275.275 0 0 0-.199.09l-1.852 2.117a.265.265 0 0 0 .2.44h.793v.792c-.008.36.537.36.529 0V2.91a.265.265 0 0 0-.264-.263h-.476l1.269-1.451 1.272 1.45h-.477a.265.265 0 0 0-.266.264v.796c0 .353.53.353.53 0v-.53h.793a.266.266 0 0 0 .199-.44L14.486.62a.26.26 0 0 0-.199-.09zm-7.44.87.374.374c.261.243.617-.123.375-.373l-.375-.375a.265.265 0 0 0-.375.375zm2.865-.374-.375.375c-.241.25.114.616.375.373l.375-.373a.265.265 0 0 0-.375-.375zM5.555 5.292v.406a1.06 1.06 0 0 0 .53 1.976h.242c.185.374.46.688.817.926v.396H7.14a.26.26 0 0 0-.115.027l-1.06.53a.263.263 0 0 0-.128.33c-.24.143-.455.3-.648.471a2.881 2.881 0 0 0-.46-.293c.349-.338.56-.808.56-1.33a1.851 1.851 0 1 0-3.14 1.33 2.983 2.983 0 0 0-1.62 2.675v.453c0 .9.715 1.627 1.6 1.627H3.97v.532c0 .317.1.628.342.833.246.209.595.27 1.01.189.857-.233 1.714-.462 2.574-.693l.384.385a.265.265 0 0 0 .375 0l.385-.385c.851.232 1.705.46 2.568.692.426.084.774.017 1.016-.188.242-.205.342-.516.342-.833v-.532h1.838c.885 0 1.601-.726 1.601-1.627v-.453c0-1.17-.652-2.183-1.62-2.675a1.851 1.851 0 1 0-3.14-1.331c-.001.523.21.993.56 1.33a2.88 2.88 0 0 0-.46.294 4.243 4.243 0 0 0-.649-.471.262.262 0 0 0-.128-.33l-1.058-.53a.265.265 0 0 0-.119-.027v-.397c.35-.227.63-.55.815-.925h.241a1.06 1.06 0 0 0 .53-1.976v-.406a2.903 2.903 0 0 0-2.91-2.91 2.905 2.905 0 0 0-2.91 2.91zm5.292 0v.263l-.266.001c-.354 0-.707-.252-.8-.597a.265.265 0 0 0-.373-.17c-.307.15-.609.239-.941.239-.35 0-.636-.089-.944-.239a.263.263 0 0 0-.37.17c-.095.35-.449.597-.802.597h-.267V5.29a2.376 2.376 0 0 1 2.383-2.38 2.373 2.373 0 0 1 2.38 2.38zM3.44 4.497c-.132 0-.264.088-.264.264v.265c0 .353.529.353.529 0v-.265c0-.176-.132-.264-.265-.264zm11.641 0c-.132 0-.264.088-.264.265v.264c0 .353.529.353.529 0v-.264c0-.177-.132-.265-.265-.265zm-13.228.264c-.133 0-.265.088-.265.265v.264c0 .353.53.353.53 0v-.264c0-.177-.133-.265-.265-.265zm11.64 0c-.132 0-.264.089-.264.265v.265c0 .353.53.353.53 0v-.265c0-.176-.133-.264-.265-.264zM7.55 5.38a2.459 2.459 0 0 0 1.834-.001c.195.35.538.596.935.68v.573a1.84 1.84 0 0 1-1.851 1.836A1.843 1.843 0 0 1 6.613 6.63v-.573a1.4 1.4 0 0 0 .936-.679zm-4.903.177c-.132 0-.264.088-.264.265v.264c0 .353.529.353.529 0v-.264c0-.177-.132-.265-.265-.265zm11.641 0c-.132 0-.264.089-.264.265v.265c0 .352.53.352.53 0V5.82c0-.176-.133-.265-.266-.265zM6.086 6.631c0 .177.018.347.055.513h-.056a.53.53 0 0 1 0-1.059zm4.76-.546a.53.53 0 0 1 0 1.058h-.055a2.36 2.36 0 0 0 .056-.512zM3.44 7.408a1.324 1.324 0 1 1 .001 2.648 1.324 1.324 0 0 1 0-2.648zm10.055 0a1.322 1.322 0 1 1 0 2.646 1.324 1.324 0 1 1 0-2.646zM7.673 8.862a2.41 2.41 0 0 0 1.587 0v.553l-.639.64h-.309l-.639-.639zm-.581.72.736.736-.42.42-.874-.877zm2.75 0 .558.28-.874.876-.42-.42zm-3.638.7L7.221 11.3a.265.265 0 0 0 .375 0l.077-.077.248.248-.287 2.011-.226.058c-.016-.035-.026-.072-.043-.121-.043-.133-.088-.303-.15-.475a1.51 1.51 0 0 0-.275-.504.78.78 0 0 0-.59-.27.812.812 0 0 0-.793.796v.793c0 .085.009.17.026.25l-.093.023c-.345.087-.211.605.133.514l1.93-.498-.143.996a.266.266 0 0 0 .054.201l-2.254.607c-.301.058-.466.003-.558-.074-.09-.076-.154-.219-.154-.43v-2.119c0-1.333.58-2.318 1.706-2.945zm4.526 0c1.157.645 1.705 1.648 1.705 2.946v2.12c0 .21-.063.353-.153.427-.094.08-.257.134-.557.076l-2.238-.602.083-.023.475-.128a.59.59 0 0 0 .272-.157 1.18 1.18 0 0 0 .804-.445l.19.049c.34.086.472-.424.132-.514l-.092-.023c.017-.08.026-.165.026-.25v-.793c0-.452-.398-.795-.793-.795a.814.814 0 0 0-.73.402c-.089.141-.16.307-.222.416a.602.602 0 0 0-.14.015l-.252.066-.227-1.593.254-.248.071.071a.265.265 0 0 0 .375 0zm-8.062.132a1.85 1.85 0 0 0 1.545 0c.22.078.421.188.605.323-.57.675-.85 1.515-.85 2.491v1.06H2.132c-.597 0-1.073-.49-1.073-1.099v-.453c0-1.081.672-1.987 1.61-2.322zm10.052 0a1.85 1.85 0 0 0 1.546 0 2.448 2.448 0 0 1 1.609 2.322v.453c0 .608-.476 1.098-1.072 1.098h-1.838v-1.059c0-.99-.288-1.827-.848-2.492.183-.134.384-.244.603-.322zm-4.409.17h.311l.27.269-.423.416-.422-.421zm.227 1.312.442 3.092-.513.511-.514-.511.442-3.092a.264.264 0 0 0 .143 0zm-1.995.895c.06.068.122.19.174.332.052.143.094.304.144.457l.031.09-.795.205a.65.65 0 0 1-.011-.117v-.793c0-.158.158-.266.264-.266.07 0 .133.024.193.092zm4.304.174v.793c0 .24-.122.445-.31.56 0-.15-.023-.3-.064-.449a1.547 1.547 0 0 0-.32-.617c-.012-.013-.024-.03-.037-.042.075-.149.128-.266.183-.351.076-.119.151-.16.285-.16.107 0 .263.108.263.266zm-1.243.555c.03-.008.076-.002.154.085.086.096.16.242.205.405.045.163.056.335.033.441-.02.074-.038.122-.087.135l-.436.118-.158-1.109z" fill="#f7921e" opacity="1" data-original="#f7921e" class=""></path></g></svg>