<svg xmlns="http://www.w3.org/2000/svg" version="1.1" xmlns:xlink="http://www.w3.org/1999/xlink" width="100" height="100" x="0" y="0" viewBox="0 0 512 512" style="enable-background:new 0 0 512 512" xml:space="preserve" class=""><g><path d="M504.114 345.899c-9.34-12.681-34.102-15.034-52.992-5.033-2.47 1.307-4.897 2.596-7.302 3.875-1.208-3.564-3.307-5.94-5.341-7.482-16.293-12.35-58.025 7.164-106.839 31.948a1540.948 1540.948 0 0 1-11.629 5.865c-33.291-9.423-56.926-17.318-76.007-23.692-55.786-18.635-70.029-23.384-157.627-8.43l-.872-6.423c-1.379-10.155-10.759-17.288-20.92-15.917l-44.526 6.047c-4.906.667-9.268 3.214-12.278 7.171-3.012 3.959-4.304 8.841-3.637 13.747l19.557 144.023c.667 4.907 3.213 9.268 7.172 12.279 3.277 2.494 7.188 3.809 11.223 3.809.837 0 1.681-.057 2.523-.171l44.528-6.046c9.138-1.243 15.811-8.97 16.056-17.904 11.097 2.321 21.49 4.834 31.603 7.285 31.719 7.687 61.973 15.02 107.613 15.02 9.254 0 19.142-.302 29.801-.963 34.113-2.116 86.496-29.472 114.684-45.589 42.377-24.23 83.419-53.473 104.56-74.498 19.743-19.638 15.147-32.814 10.65-38.921zm-166.135 35.792c16.691-8.476 37.465-19.022 56.13-26.302 28.351-11.057 34.893-7.745 35.915-6.973.59.447.866 1.624.82 3.264-25.812 13.868-47.341 25.823-63.953 35.049-9.52 5.287-18.354 10.193-25.046 13.795-.331-6.327-2.991-12.454-7.222-17.131l3.356-1.702zM87.263 487.596l-44.526 6.046a4.538 4.538 0 0 1-3.387-.905 4.553 4.553 0 0 1-1.775-3.021L18.018 345.691c-.164-1.201.158-2.404.905-3.386s1.819-1.612 3.021-1.775h.001l44.525-6.047c2.479-.33 4.828 1.464 5.163 3.927L91.19 482.434c.334 2.464-1.464 4.827-3.927 5.162zM483.59 374.894c-20.342 20.23-60.235 48.599-101.635 72.271-46.169 26.398-85.753 42.352-108.603 43.77-61.116 3.788-96.157-4.7-133.249-13.69-11.601-2.811-23.559-5.706-36.621-8.323l-15.22-112.094c84.462-14.491 95.523-10.803 151.307 7.832 19.714 6.585 44.25 14.781 79.234 24.618 5.922 1.665 10.141 8.721 8.852 14.804-1.783 8.414-13.703 12.073-31.115 9.561l-89.526-12.999a6.993 6.993 0 0 0-7.933 5.921 7 7 0 0 0 5.921 7.933l89.53 13c4.593.664 8.736.962 12.479.962 13.629 0 21.905-3.958 26.927-8.61 2.854-.815 6.375-2.669 11.192-5.21 6.708-3.537 16.351-8.892 28.558-15.671 20.74-11.518 49.143-27.292 83.983-45.729 13.354-7.067 30.502-5.378 35.17.962 3.059 4.153-.4 11.888-9.251 20.692zm-48.159-174.49c14.596 0 26.029-15.539 26.029-35.377 0-21.324-13.493-31.037-26.029-31.037s-26.029 9.713-26.029 31.037c-.001 19.838 11.433 35.377 26.029 35.377zm0-52.414c7.42 0 12.029 6.528 12.029 17.037 0 12.598-6.34 21.377-12.029 21.377s-12.029-8.779-12.029-21.377c-.001-10.509 4.609-17.037 12.029-17.037zm-65.684 156.74h23.797c1.77 0 3.412-.663 4.66-1.777a6.979 6.979 0 0 0 4.661 1.777h65.019a6.977 6.977 0 0 0 4.703-1.816 6.987 6.987 0 0 0 4.704 1.816h23.684a7 7 0 0 0 6.893-8.216l-14.133-80.153c-1.559-8.832-9.303-15.001-18.833-15.001h-23.52a6.997 6.997 0 0 0-4.949 2.05l-11.003 11.002-11.002-11.001a6.998 6.998 0 0 0-4.949-2.051h-23.806c-9.445 0-17.125 6.143-18.676 14.937l-14.145 80.218a7 7 0 0 0 6.895 8.215zm21.038-86.002c.41-2.327 2.751-3.368 4.889-3.368h20.906l13.901 13.9a6.999 6.999 0 0 0 9.898.001l13.902-13.901h20.62c2.049 0 4.599.899 5.046 3.433l12.685 71.938h-9.7l-6.971-32.076a7.008 7.008 0 0 0-7.473-5.485 7 7 0 0 0-6.363 6.741l-1.016 30.82H409.67l-.823-29.321a7.002 7.002 0 0 0-6.306-6.77 6.998 6.998 0 0 0-7.514 5.397l-7.058 30.693h-9.882zM76.519 200.404c14.596 0 26.029-15.539 26.029-35.377 0-21.324-13.493-31.037-26.029-31.037s-26.028 9.713-26.028 31.037c-.001 19.838 11.432 35.377 26.028 35.377zm0-52.414c7.42 0 12.029 6.528 12.029 17.037 0 12.598-6.34 21.377-12.029 21.377s-12.028-8.779-12.028-21.377c-.001-10.509 4.609-17.037 12.028-17.037zM10.975 304.73h23.684c1.791 0 3.45-.68 4.704-1.816a6.975 6.975 0 0 0 4.704 1.816h65.019a6.976 6.976 0 0 0 4.66-1.777 6.99 6.99 0 0 0 4.66 1.777h23.797a7 7 0 0 0 6.893-8.216l-14.145-80.218c-1.551-8.794-9.23-14.937-18.676-14.937H92.471a6.997 6.997 0 0 0-4.949 2.05l-11.003 11.002-11.002-11.001a6.998 6.998 0 0 0-4.949-2.051H37.047c-9.529 0-17.273 6.169-18.832 15.001L4.081 296.514a7 7 0 0 0 6.894 8.216zm21.027-85.938c.447-2.533 2.997-3.433 5.045-3.433h20.621l13.901 13.9a6.999 6.999 0 0 0 9.898.001l13.903-13.9h20.905c2.138 0 4.479 1.041 4.889 3.368l12.696 72.002h-9.882l-7.058-30.693a7 7 0 0 0-13.82 1.373l-.823 29.321H50.84l-1.016-30.82a7 7 0 0 0-6.363-6.741c-3.514-.299-6.724 2.032-7.473 5.485l-6.972 32.076h-9.7zM259.401 70.703c14.591 0 26.021-15.533 26.021-35.362 0-21.317-13.488-31.026-26.021-31.026-12.531 0-26.02 9.709-26.02 31.026.001 19.828 11.431 35.362 26.02 35.362zm0-52.389c7.415 0 12.021 6.524 12.021 17.026 0 12.589-6.335 21.362-12.021 21.362s-12.02-8.773-12.02-21.362c.001-10.502 4.606-17.026 12.02-17.026zm-65.789 157.452h23.742a6.996 6.996 0 0 0 4.76-1.867 6.982 6.982 0 0 0 4.76 1.867h64.938a6.982 6.982 0 0 0 4.8-1.905 6.998 6.998 0 0 0 4.801 1.905h23.64a7 7 0 0 0 6.893-8.216L317.68 86.649c-1.557-8.83-9.299-14.997-18.826-14.997h-23.509a6.993 6.993 0 0 0-4.949 2.051l-10.994 10.993-10.995-10.994a7 7 0 0 0-4.949-2.05h-23.793c-9.442 0-17.12 6.141-18.67 14.932l-14.276 80.967a7 7 0 0 0 6.893 8.215zm21.17-86.752c.409-2.322 2.747-3.362 4.883-3.362h20.894l13.895 13.894a7 7 0 0 0 9.898-.001l13.894-13.893h20.609c2.046 0 4.593.897 5.039 3.429l12.817 72.686h-9.656l-7.139-32.845a7.006 7.006 0 0 0-7.473-5.484 6.998 6.998 0 0 0-6.363 6.74l-1.041 31.589h-51.358l-.845-30.092a7.002 7.002 0 0 0-6.306-6.77c-3.489-.357-6.724 1.964-7.514 5.397l-7.235 31.464h-9.827zm-3.216 191.104-6.304 37.143c-.806 4.753 1.133 9.445 5.062 12.245 3.93 2.796 8.998 3.097 13.229.776l31.41-17.218 33.377 17.473a12.485 12.485 0 0 0 5.797 1.437c2.611 0 5.203-.831 7.41-2.467 3.877-2.872 5.727-7.601 4.828-12.341l-6.669-35.193 26.932-26.344c3.446-3.372 4.635-8.307 3.101-12.885-1.536-4.573-5.462-7.792-10.244-8.4l-35.531-4.532-16.732-33.754c-2.124-4.285-6.395-6.933-11.168-6.933l-.123.001c-4.825.046-9.101 2.784-11.159 7.146l-15.291 32.393-37.271 5.481c-4.774.702-8.639 3.998-10.083 8.599-1.446 4.602-.164 9.515 3.349 12.82zm20.77-37.722c4.201-.617 7.65-3.174 9.464-7.015l14.291-30.275 15.693 31.657c1.886 3.803 5.383 6.293 9.595 6.831l33.209 4.236-25.258 24.706c-3.035 2.971-4.323 7.066-3.532 11.237l6.233 32.894-31.302-16.388c-1.846-.965-3.817-1.447-5.788-1.447-2.048 0-4.093.521-5.99 1.562l-29.357 16.093 5.912-34.836c.71-4.185-.656-8.255-3.748-11.166l-24.377-22.947z" fill="#f7921e" opacity="1" data-original="#f7921e" class=""></path></g></svg>