<svg xmlns="http://www.w3.org/2000/svg" version="1.1" xmlns:xlink="http://www.w3.org/1999/xlink" width="100" height="100" x="0" y="0" viewBox="0 0 512 512" style="enable-background:new 0 0 512 512" xml:space="preserve" class=""><g><path d="M326.623 133.062c13.785 0 25-11.215 25-25s-11.215-25.001-25-25.001-25 11.216-25 25.001c0 5.63 1.872 10.83 5.025 15.014l-41.076 57.401a24.9 24.9 0 0 0-7.784-1.247c-6.569 0-12.551 2.551-17.017 6.709l-27.379-15.536a24.96 24.96 0 0 0 .561-5.257c0-13.785-11.215-25-25-25s-25 11.215-25 25c0 1.803.196 3.561.561 5.257l-27.379 15.536c-4.466-4.158-10.448-6.708-17.017-6.708-13.785 0-25 11.216-25 25.001s11.215 25.001 25 25.001 25-11.216 25-25.001a24.96 24.96 0 0 0-.561-5.257l27.379-15.536c4.466 4.158 10.448 6.709 17.017 6.709 6.569 0 12.55-2.551 17.017-6.708l27.379 15.536a24.96 24.96 0 0 0-.561 5.257c0 13.785 11.215 25.001 25 25.001 13.786 0 25.001-11.216 25.001-25.001a24.871 24.871 0 0 0-5.026-15.016l41.076-57.401a24.923 24.923 0 0 0 7.784 1.246zm0-35.001c5.514 0 10 4.486 10 10.001 0 5.514-4.486 10-10 10s-10-4.486-10-10c-.001-5.515 4.485-10.001 10-10.001zm-206.508 116.17c-5.514 0-10-4.486-10-10.001s4.486-10.001 10-10.001 10 4.486 10 10.001-4.486 10.001-10 10.001zm68.836-39.085c-5.514 0-10-4.486-10-10.001 0-5.514 4.486-10 10-10s10 4.486 10 10c.001 5.515-4.486 10.001-10 10.001zm68.836 39.085c-5.514 0-10-4.486-10-10.001s4.486-10.001 10-10.001c5.515 0 10.001 4.486 10.001 10.001s-4.487 10.001-10.001 10.001z" fill="#f7921e" opacity="1" data-original="#f7921e" class=""></path><path d="M418.796 376.965H21.215A6.222 6.222 0 0 1 15 370.75V61.331a6.222 6.222 0 0 1 6.215-6.215h35.356c4.142 0 7.5-3.357 7.5-7.5s-3.358-7.5-7.5-7.5H21.215C9.517 40.116 0 49.633 0 61.331V370.75c0 11.698 9.517 21.215 21.215 21.215h51.713v16.506c0 9.403 7.65 17.053 17.053 17.053h75.074l-35.34 68.998a7.5 7.5 0 0 0 13.35 6.838l38.843-75.836h82.922l38.843 75.836a7.498 7.498 0 0 0 10.094 3.257 7.5 7.5 0 0 0 3.256-10.095l-35.34-68.998h75.074c9.403 0 17.053-7.649 17.053-17.053v-16.506h44.986c4.142 0 7.5-3.357 7.5-7.5s-3.358-7.5-7.5-7.5zm-59.986 31.506a2.055 2.055 0 0 1-2.053 2.053H89.981a2.055 2.055 0 0 1-2.053-2.053v-16.506H358.81v16.506zM86.571 55.116h338.951a6.222 6.222 0 0 1 6.215 6.215v71.311c0 4.143 3.358 7.5 7.5 7.5s7.5-3.357 7.5-7.5V61.331c0-11.698-9.517-21.215-21.215-21.215H264.995V25.374c0-10.375-8.441-18.816-18.817-18.816H200.56c-10.375 0-18.817 8.441-18.817 18.816v14.742H86.571c-4.142 0-7.5 3.357-7.5 7.5s3.358 7.5 7.5 7.5zm110.172-29.742a3.82 3.82 0 0 1 3.817-3.816h45.618a3.821 3.821 0 0 1 3.817 3.816v14.742h-53.251V25.374z" fill="#f7921e" opacity="1" data-original="#f7921e" class=""></path><path d="M104.902 267.576a7.5 7.5 0 0 0-7.5 7.5v66.272a7.5 7.5 0 0 0 7.5 7.5h30.427a7.5 7.5 0 0 0 7.5-7.5v-66.272a7.5 7.5 0 0 0-7.5-7.5h-30.427zm22.927 66.273h-15.427v-51.272h15.427v51.272zM173.737 229.248a7.5 7.5 0 0 0-7.5 7.5v104.601a7.5 7.5 0 0 0 7.5 7.5h30.427a7.5 7.5 0 0 0 7.5-7.5V236.748a7.5 7.5 0 0 0-7.5-7.5h-30.427zm22.928 104.601h-15.427v-89.601h15.427v89.601zM242.573 267.576a7.5 7.5 0 0 0-7.5 7.5v66.272a7.5 7.5 0 0 0 7.5 7.5H273a7.5 7.5 0 0 0 7.5-7.5v-66.272a7.5 7.5 0 0 0-7.5-7.5h-30.427zm22.927 66.273h-15.427v-51.272H265.5v51.272zM311.409 311.832a7.5 7.5 0 0 0-7.5 7.5v22.017a7.5 7.5 0 0 0 7.5 7.5h30.427c4.142 0 7.5-3.357 7.5-7.5s-3.358-7.5-7.5-7.5h-22.927v-14.517a7.5 7.5 0 0 0-7.5-7.5zM508.175 384.019l-43.027-74.526c10.901-11.619 18.839-25.816 23.079-41.64 6.777-25.291 3.299-51.708-9.793-74.384-27.026-46.813-87.097-62.906-133.907-35.881-46.811 27.025-62.906 87.096-35.88 133.907 13.092 22.676 34.231 38.896 59.522 45.674a98.565 98.565 0 0 0 25.53 3.382c7.442 0 14.841-.856 22.077-2.55l43.018 74.528c5.273 9.137 14.875 14.25 24.737 14.249 4.833 0 9.729-1.229 14.208-3.813 8.796-5.077 14.261-14.544 14.261-24.706 0-4.979-1.322-9.902-3.825-14.24zM372.051 322.68c-21.421-5.74-39.326-19.479-50.415-38.685-22.89-39.648-9.257-90.526 30.39-113.417 13.043-7.53 27.296-11.106 41.374-11.106 28.715 0 56.683 14.893 72.043 41.497 11.088 19.206 14.034 41.58 8.294 63.002-5.74 21.422-19.479 39.325-38.685 50.414-19.205 11.089-41.579 14.033-63.001 8.295zm118.191 87.293c-6.453 3.726-14.733 1.508-18.456-4.942l-41.388-71.704a99.523 99.523 0 0 0 12.156-5.951 99.317 99.317 0 0 0 11.23-7.566l41.4 71.707A13.528 13.528 0 0 1 497 398.26a13.56 13.56 0 0 1-6.758 11.713z" fill="#f7921e" opacity="1" data-original="#f7921e" class=""></path><path d="M461.542 263.611c5.295-17.056 4.034-35.316-3.551-51.416a7.5 7.5 0 1 0-13.569 6.392c5.983 12.7 6.976 27.109 2.795 40.575-4.204 13.54-13.286 24.903-25.573 31.997-13.002 7.508-28.151 9.5-42.652 5.615-14.502-3.886-26.624-13.187-34.13-26.189-15.497-26.841-6.267-61.285 20.574-76.782a56.131 56.131 0 0 1 62.051 3.857 7.498 7.498 0 0 0 10.506-1.455 7.5 7.5 0 0 0-1.456-10.506 71.1 71.1 0 0 0-78.602-4.887c-16.472 9.51-28.255 24.866-33.178 43.238s-2.396 37.562 7.114 54.034c9.51 16.473 24.866 28.255 43.238 33.179a71.6 71.6 0 0 0 18.546 2.457c12.338 0 24.517-3.236 35.488-9.571 15.567-8.986 27.073-23.382 32.399-40.538z" fill="#f7921e" opacity="1" data-original="#f7921e" class=""></path></g></svg>