<svg xmlns="http://www.w3.org/2000/svg" version="1.1" xmlns:xlink="http://www.w3.org/1999/xlink" width="100" height="100" x="0" y="0" viewBox="0 0 64 64" style="enable-background:new 0 0 512 512" xml:space="preserve" class=""><g><path d="M13 26a5 5 0 1 1 5-5 5.006 5.006 0 0 1-5 5zm0-8a3 3 0 1 0 3 3 3 3 0 0 0-3-3zM10 47H2a1 1 0 0 1-1-1 21.65 21.65 0 0 1 1.557-8.085l3.267-8.169a5.037 5.037 0 0 1 5.664-3.068 5.053 5.053 0 0 1 3.283 2.269l3.829 6.129 4.7.671A3.142 3.142 0 0 1 22.857 42H15a1 1 0 0 1-.895-.553l-1.658-3.316-1.464 8.048A1 1 0 0 1 10 47zm-6.975-2h6.14l1.852-10.179a1 1 0 0 1 1.878-.268L15.618 40h7.239a1.142 1.142 0 0 0 .163-2.272l-5.162-.738a1 1 0 0 1-.706-.46l-4.077-6.523a3.036 3.036 0 0 0-5.393.482l-3.268 8.168A19.669 19.669 0 0 0 3.025 45zM51 26a5 5 0 1 1 5-5 5.006 5.006 0 0 1-5 5zm0-8a3 3 0 1 0 3 3 3 3 0 0 0-3-3zM62 47h-8a1 1 0 0 1-.983-.821l-1.464-8.048-1.653 3.316A1 1 0 0 1 49 42h-7.857a3.142 3.142 0 0 1-.446-6.253l4.7-.671 3.831-6.129a5.053 5.053 0 0 1 3.283-2.269 5.034 5.034 0 0 1 5.664 3.068l3.267 8.169A21.65 21.65 0 0 1 63 46a1 1 0 0 1-1 1zm-7.165-2h6.14a19.669 19.669 0 0 0-1.389-6.343l-3.268-8.168a3.035 3.035 0 0 0-5.392-.482l-4.078 6.523a1 1 0 0 1-.706.46l-5.162.738A1.142 1.142 0 0 0 41.143 40h7.239l2.723-5.447a1 1 0 0 1 1.878.268z" fill="#f7921e" opacity="1" data-original="#f7921e" class=""></path><path d="M44.634 32.364 43.317 29H20.683l-.925 2.364-1.858-.728 1.173-3A1 1 0 0 1 20 27h24a1 1 0 0 1 .932.636l1.565 4zM32 51a6.006 6.006 0 0 1-6-6v-1a6 6 0 0 1 12 0v1a6.006 6.006 0 0 1-6 6zm0-11a4 4 0 0 0-4 4v1a4 4 0 0 0 8 0v-1a4 4 0 0 0-4-4zM43 62h-2v-5a3 3 0 0 0-3-3H26a3 3 0 0 0-3 3v5h-2v-5a5.006 5.006 0 0 1 5-5h12a5.006 5.006 0 0 1 5 5zM53 56h-9v-2h8v-2.812l-3.062-7.824 1.863-.728 3.131 8A1 1 0 0 1 54 51v4a1 1 0 0 1-1 1zM20 56h-9a1 1 0 0 1-1-1v-4a1 1 0 0 1 .068-.364l3.131-8 1.864.728L12 51.188V54h8z" fill="#f7921e" opacity="1" data-original="#f7921e" class=""></path><path d="M60 28h-2V3H6v25H4V2a1 1 0 0 1 1-1h54a1 1 0 0 1 1 1z" fill="#f7921e" opacity="1" data-original="#f7921e" class=""></path><path d="m21.707 21.707-1.414-1.414 7-7a1 1 0 0 1 1.414 0L34 18.586 46.293 6.293l1.414 1.414-13 13a1 1 0 0 1-1.414 0L28 15.414z" fill="#f7921e" opacity="1" data-original="#f7921e" class=""></path><path d="M48 13h-2V8h-5V6h6a1 1 0 0 1 1 1zM11 6h12v2H11zM11 10h7v2h-7z" fill="#f7921e" opacity="1" data-original="#f7921e" class=""></path></g></svg>