<svg xmlns="http://www.w3.org/2000/svg" version="1.1" xmlns:xlink="http://www.w3.org/1999/xlink" width="512" height="512" x="0" y="0" viewBox="0 0 512 512" style="enable-background:new 0 0 512 512" xml:space="preserve" class=""><g><path d="M380.128 184.198c0-68.453-55.69-124.143-124.142-124.143-68.438 0-124.115 55.69-124.115 124.143 0 68.437 55.677 124.115 124.115 124.115 68.452 0 124.142-55.677 124.142-124.114zm-124.142 108.1c-59.607 0-108.1-48.494-108.1-108.1 0-59.622 48.493-108.127 108.1-108.127 59.621 0 108.127 48.505 108.127 108.127 0 59.606-48.506 108.1-108.127 108.1zm212.616 153.927L390.076 310.24c8.864-10.663 14.204-24.355 14.204-39.272v-6.492c0-12.683 4.36-23.21 13.33-32.18l4.592-4.592c11.603-11.603 17.993-27.056 17.993-43.515 0-16.46-6.392-31.909-17.993-43.495l-4.584-4.584c-8.975-9-13.338-19.528-13.338-32.188V97.43c0-33.925-27.6-61.526-61.526-61.526h-6.49c-12.666 0-23.192-4.37-32.199-13.377l-4.571-4.542C287.904 6.38 272.454-.011 255.987-.011h-.001c-16.467 0-31.92 6.391-43.488 17.975l-4.617 4.589c-8.96 8.984-19.483 13.351-32.173 13.351h-6.49c-33.926 0-61.527 27.6-61.527 61.526v6.491c0 12.684-4.36 23.21-13.33 32.18l-4.592 4.592c-23.973 23.973-23.975 63.003-.001 87.01l4.6 4.6c8.964 8.94 13.323 19.464 13.323 32.172v6.492c0 14.918 5.34 28.61 14.204 39.272L43.397 446.226a8.01 8.01 0 0 0 7.816 11.963l60.48-6.694 24.452 55.725a8.007 8.007 0 0 0 14.269.787l83.044-143.855a61.677 61.677 0 0 0 22.528 4.234 61.682 61.682 0 0 0 22.527-4.234l83.044 143.854a8.008 8.008 0 0 0 14.269-.786l24.45-55.726 60.51 6.695a8.007 8.007 0 0 0 7.815-11.964zM133.973 321.353c9.99 7.01 22.14 11.14 35.244 11.14h1.942l-59.405 102.881-46.576 5.155zm10.48 164.943-18.829-42.914 63.03-109.16c7.16 2.032 13.52 5.87 19.234 11.6l4.593 4.593a61.981 61.981 0 0 0 6.953 5.994zm79.353-147.205-4.585-4.585c-11.93-11.963-26.57-18.029-43.513-18.029h-6.49c-25.095 0-45.511-20.416-45.511-45.51v-6.492c0-16.942-6.066-31.581-18.02-43.504l-4.59-4.589c-17.734-17.758-17.736-46.632-.004-64.364l4.592-4.592c11.958-11.958 18.022-26.595 18.022-43.505V97.43c0-25.094 20.416-45.51 45.51-45.51h6.492c16.923 0 31.563-6.076 43.488-18.033l4.612-4.585c8.565-8.575 19.991-13.298 32.177-13.298 12.185 0 23.612 4.723 32.197 13.32l4.575 4.546c11.977 11.977 26.614 18.05 43.505 18.05h6.492c25.093 0 45.51 20.415 45.51 45.51v6.49c0 16.878 6.06 31.513 18.02 43.506l4.596 4.595c8.576 8.564 13.298 19.988 13.298 32.166 0 12.181-4.723 23.613-13.302 32.191l-4.591 4.592c-11.958 11.958-18.022 26.595-18.022 43.505v6.492c0 25.094-20.416 45.51-45.51 45.51h-6.49c-16.91 0-31.547 6.063-43.505 18.02l-4.593 4.593c-8.565 8.564-19.992 13.28-32.18 13.28-12.188 0-23.616-4.716-32.18-13.28zm143.711 147.205-74.98-129.886a61.984 61.984 0 0 0 6.953-5.995l4.593-4.592c5.731-5.73 12.1-9.57 19.259-11.604l63.005 109.162zm32.7-50.922-59.38-102.881h1.918c13.104 0 25.254-4.131 35.244-11.14l68.82 119.177zm-65.313-292.59a8.009 8.009 0 0 0-8.987-.912l-37.251 20.263-26.649-30.515a8.007 8.007 0 0 0-6.031-2.74h-.002c-2.312 0-4.512 1-6.032 2.743l-26.621 30.512-37.279-20.264a8.01 8.01 0 0 0-11.404 9.619l28.149 82.602a8.008 8.008 0 0 0 7.58 5.424h91.247a8.01 8.01 0 0 0 7.58-5.427l28.12-82.601a8.01 8.01 0 0 0-2.42-8.704zM295.89 223.5h-79.782l-19.685-57.763 24.898 13.534a8.007 8.007 0 0 0 9.858-1.771l24.81-28.436 24.835 28.439a8.007 8.007 0 0 0 9.857 1.767l24.871-13.53z" fill="#ed3237" opacity="1" data-original="#ed3237" class=""></path></g></svg>