<svg xmlns="http://www.w3.org/2000/svg" version="1.1" xmlns:xlink="http://www.w3.org/1999/xlink" width="512" height="512" x="0" y="0" viewBox="0 0 512 512" style="enable-background:new 0 0 512 512" xml:space="preserve" class=""><g><path d="M502.561 313.744c-7.077-8.037-21.436-11.979-37.56-2.669-20.454 11.809-71.425 36.653-109.394 51.018 1.68-7.154.562-14.706-3.385-21.349-5.506-9.265-15.19-14.575-25.915-14.216-46.938-.022-78.618-13.165-104.081-23.728-24.267-10.067-45.225-18.76-69.964-12.773-25.058 6.065-51.761 26.894-86.267 67.354-8.812-4.366-19.802-2.904-27.132 4.426L6.051 394.619a7 7 0 0 0 0 9.899L107.483 505.95a7 7 0 0 0 9.9 0l32.812-32.813c6.862-6.863 8.594-16.94 5.203-25.429 21.086-8.923 44.565-9.699 74.607-7.901 6.711.402 13.752.969 21.207 1.569 17.676 1.424 35.952 2.898 53.605 2.505 37.048-.818 59.355-11.229 89.159-27.017 30.4-16.104 95.224-54.545 107.31-70.434 8.463-11.125 8.963-23.956 1.273-32.686zM140.295 463.238l-27.862 27.863L20.9 399.569l27.863-27.863c3.728-3.729 9.795-3.728 13.522 0l78.01 78.008c3.728 3.728 3.728 9.795 0 13.523zm349.85-125.283c-8.558 11.249-63.191 45.599-102.72 66.538-28.035 14.851-48.952 24.642-82.916 25.392-16.931.375-34.848-1.068-52.172-2.463-7.529-.606-14.641-1.18-21.495-1.589-26.506-1.587-56.825-2.143-84.18 10.449l-69.924-69.923c68.498-80.328 94.114-69.714 140.125-50.627 26.631 11.047 59.774 24.796 109.566 24.796.088 0 .176-.001.265-.005 5.568-.213 10.624 2.545 13.492 7.373 2.868 4.827 2.878 10.574.025 15.373-5.141 8.65-23.623 13.144-49.431 12.016-24.124-1.052-48.418-6.823-57.97-11.794a7 7 0 0 0-6.462 12.419c12.854 6.689 39.695 12.309 63.822 13.362 2.698.118 5.488.187 8.328.187 12.859 0 26.731-1.412 37.639-6.024 38.243-10.783 109.576-45.057 135.864-60.234 9.216-5.32 16.855-3.833 20.054-.202 3.181 3.612 2.467 9.203-1.91 14.958zM226.207 152.687c7.048 5.005 10.262 12.765 8.818 21.289-2.241 13.236.93 23.929 9.69 32.689 2.936 2.936 6.094 5.229 9.486 6.916l-31.004 65.684a7 7 0 0 0 6.986 9.957l30.913-2.906 19.839 23.888a7 7 0 0 0 11.977-2.118l24.422-68.373c3.514 1.145 7.281 1.724 11.328 1.724 4.186 0 8.07-.622 11.686-1.848l24.4 68.314a7 7 0 0 0 11.977 2.118l19.838-23.888 30.914 2.906a7.002 7.002 0 0 0 6.986-9.957l-30.996-65.668c3.263-1.671 6.306-3.912 9.143-6.749 8.764-8.765 11.934-19.458 9.69-32.69-1.444-8.523 1.771-16.282 8.818-21.288 10.943-7.772 16.263-17.575 16.263-29.968s-5.319-22.196-16.263-29.968c-7.049-5.006-10.263-12.765-8.818-21.289 2.24-13.235-.93-23.928-9.69-32.689-8.765-8.766-19.465-11.933-32.69-9.69-8.528 1.443-16.283-1.771-21.288-8.818-7.773-10.943-17.576-16.263-29.969-16.263s-22.194 5.32-29.968 16.263c-5.006 7.048-12.765 10.263-21.29 8.817-13.234-2.239-23.928.931-32.689 9.692-8.763 8.764-11.933 19.457-9.689 32.69 1.444 8.523-1.77 16.282-8.818 21.288-10.943 7.773-16.264 17.576-16.264 29.968s5.32 22.195 16.264 29.968zm57.652 139.125-14.354-17.283a7.001 7.001 0 0 0-6.04-2.497l-22.365 2.102 26.958-57.113c2.968.109 6.079-.112 9.347-.666 8.522-1.441 16.284 1.771 21.289 8.818 1.985 2.796 4.105 5.219 6.365 7.286zM416.56 273.95l-22.366-2.102a6.995 6.995 0 0 0-6.04 2.497l-14.353 17.283-21.234-59.448c2.147-2.005 4.167-4.335 6.063-7.006 5.005-7.048 12.764-10.261 21.289-8.818 3.42.579 6.667.789 9.758.642l26.882 56.952zM234.314 104.164c11.431-8.118 16.856-21.218 14.514-35.042-1.489-8.789.241-14.905 5.787-20.451 5.543-5.544 11.656-7.277 20.452-5.788 13.825 2.343 26.923-3.084 35.041-14.514 5.163-7.269 10.712-10.371 18.554-10.371s13.392 3.102 18.555 10.371c8.118 11.428 21.212 16.857 35.042 14.514 8.787-1.489 14.905.24 20.45 5.787 5.545 5.544 7.275 11.662 5.788 20.452-2.343 13.823 3.083 26.923 14.514 35.041 7.269 5.163 10.37 10.711 10.37 18.554s-3.102 13.392-10.37 18.554c-11.431 8.119-16.856 21.218-14.514 35.042 1.489 8.788-.241 14.905-5.788 20.452s-11.662 7.274-20.451 5.787c-13.823-2.341-26.922 3.084-35.041 14.515-5.163 7.269-10.712 10.37-18.555 10.37s-13.391-3.102-18.554-10.371c-6.873-9.677-17.315-15.05-28.747-15.05-2.07 0-4.175.176-6.296.536-8.784 1.492-14.902-.24-20.45-5.787-5.544-5.544-7.274-11.661-5.787-20.453 2.342-13.823-3.085-26.922-14.514-35.041-7.27-5.163-10.371-10.712-10.371-18.554s3.102-13.391 10.371-18.554zm94.348 85.383c36.85 0 66.829-29.979 66.829-66.829s-29.979-66.829-66.829-66.829-66.829 29.979-66.829 66.829 29.979 66.829 66.829 66.829zm0-119.658c29.13 0 52.829 23.699 52.829 52.829s-23.699 52.829-52.829 52.829-52.829-23.699-52.829-52.829 23.699-52.829 52.829-52.829zm-27.992 53.339a7 7 0 0 1 12.124-7l6.603 11.438 26.245-26.246a7 7 0 0 1 9.9 9.899l-32.696 32.696a7.002 7.002 0 0 1-11.012-1.45l-11.164-19.338z" fill="#ff6402" opacity="1" data-original="#ff6402" class=""></path></g></svg>