<svg xmlns="http://www.w3.org/2000/svg" version="1.1" xmlns:xlink="http://www.w3.org/1999/xlink" width="512" height="512" x="0" y="0" viewBox="0 0 64 64" style="enable-background:new 0 0 512 512" xml:space="preserve" class=""><g><path d="m23.743 11.669-1.486-1.338-8.212 9.124-3.264-4.08-1.562 1.25 4.736 5.92zM13 35h2v2h-2zM50 23c-1.654 0-3 1.346-3 3s1.346 3 3 3 3-1.346 3-3-1.346-3-3-3zm0 4a1.001 1.001 0 0 1 0-2 1.001 1.001 0 0 1 0 2z" fill="#c21717" opacity="1" data-original="#c21717"></path><path d="M63 37.434a17.943 17.943 0 0 0-6.406-13.761 7.017 7.017 0 0 0-2.511-3.347l1.218-1.928a1.986 1.986 0 0 0 .253-1.531 1.987 1.987 0 0 0-.916-1.251l-2.175-1.305.632-1.265.631.368a2.002 2.002 0 0 0 2.608-.528l1.792-2.389a2.001 2.001 0 0 0-.592-2.928L47.273 1.585a1.999 1.999 0 0 0-2.607.527l-1.792 2.389a2.001 2.001 0 0 0 .592 2.928l.669.391-.773 1.031-1.997-1.198a2.006 2.006 0 0 0-2.736.672l-9.012 14.746A3.032 3.032 0 0 0 29 23h-2.063A12.913 12.913 0 0 0 29 16c0-7.168-5.832-13-13-13S3 8.832 3 16c0 2.578.764 4.977 2.063 7H4c-1.654 0-3 1.346-3 3v4c0 1.654 1.346 3 3 3h.827L1.071 56.477A5.638 5.638 0 0 0 6.632 63H40c1.103 0 2-.897 2-2v-2c0-.01-.003-.019-.003-.029C53.627 58.669 63 49.135 63 37.434zM55 26c0 2.757-2.243 5-5 5s-5-2.243-5-5 2.243-5 5-5 5 2.243 5 5zM41.997 50.973A2 2 0 0 0 40 49h-9.268l-1.869-11.682c.269.128.553.217.85.217a1.998 1.998 0 0 0 1.714-.971l1.669-2.781 1.346.871-1.835 3.059a1.994 1.994 0 0 0 .516 2.629l2.391 1.794a2.006 2.006 0 0 0 1.585.363 2 2 0 0 0 1.33-.934l1.872-3.12 1.329.86a2.002 2.002 0 0 0 2.75-.571l.891-1.335a1.982 1.982 0 0 0-.332-2.593l1.69-2.675a6.953 6.953 0 0 0 6.801-.036A9.264 9.264 0 0 1 55 37.242v.229c0 7.283-5.787 13.223-13.003 13.502zM33.22 55l.5 2h-9.44l.5-2zM18 53v-2h22l.001 2zm10.284-26.625 15.321 9.914-.891 1.336-15.32-9.914zM38.62 37.357l-1.907 3.178-2.392-1.794 1.801-3.001zm-9.702-6.278 2.498 1.616-1.703 2.84-2.392-1.794zM46.266 3.313l10.261 5.985-1.792 2.39-10.261-5.986zm-.392 5.521 5.49 3.202-.621 1.242-5.656-3.394zm-5.538.534 13.272 7.963-1.305 2.066A6.946 6.946 0 0 0 50 19c-3.859 0-7 3.14-7 7 0 1.916.775 3.653 2.026 4.918l-1.752 2.774-12.758-8.256zM16 5c6.065 0 11 4.935 11 11s-4.935 11-11 11S5 22.065 5 16 9.935 5 16 5zM3 30v-4c0-.551.448-1 1-1h2.641c2.367 2.46 5.684 4 9.359 4s6.992-1.54 9.359-4h1.481a2.026 2.026 0 0 0-.219.266l-.891 1.335c-.3.449-.404.988-.294 1.516.109.528.419.98.872 1.272l.93.602L26.633 31H4c-.552 0-1-.449-1-1zm3.632 31a3.636 3.636 0 0 1-3.586-4.206L4.293 49H12v-2H4.613l.64-4H15v-2H5.573l.64-4H11v-2H6.533l.32-2h18.616a1.99 1.99 0 0 0 .654 2.341l.455.341L28.707 49H18c-1.103 0-2 .897-2 2v2c0 1.103.897 2 2 2h4.72l-.5 2H18c-1.103 0-2 .897-2 2v2zM19 61h-1v-2h22l.001 2zm22.434-4H35.78l-.5-2H40c1.103 0 2-.897 2-2v-.027c8.317-.282 15-7.117 15-15.501v-.229c0-2.277-.699-4.506-1.982-6.373a6.984 6.984 0 0 0 1.931-4.054A15.938 15.938 0 0 1 61 37.434C61 48.223 52.223 57 41.434 57z" fill="#c21717" opacity="1" data-original="#c21717"></path></g></svg>