<svg xmlns="http://www.w3.org/2000/svg" version="1.1" xmlns:xlink="http://www.w3.org/1999/xlink" width="512" height="512" x="0" y="0" viewBox="0 0 512 512" style="enable-background:new 0 0 512 512" xml:space="preserve" class=""><g><path d="M346.277 212.935c-8.728-18.263-22.835-33.463-40.269-43.55-17.627-10.177-27.507-28.939-27.507-47.927V81.834l28.274 10.808c15.117 5.779 27.406-13.174 15.963-24.618l-56.13-56.13c-5.858-5.858-15.355-5.858-21.213 0l-56.13 56.13c-11.444 11.444.845 30.396 15.963 24.618l28.274-10.808v39.649c0 34.518 17.96 68.379 50.004 86.88C299.94 217.873 311 235.644 311 256c0 10.02-2.679 19.414-7.361 27.504M278.314 384.425c-1.979-32.363-19.662-63.377-49.817-80.787C212.06 294.128 201 276.356 201 256c0-10.02 2.679-19.414 7.361-27.505" style="stroke-width:15;stroke-linecap:round;stroke-linejoin:round;stroke-miterlimit:10;" fill="none" stroke="#ed3237" stroke-width="15" stroke-linecap="round" stroke-linejoin="round" stroke-miterlimit="10" data-original="#ed3237"></path><path d="M157.224 271.691c4.78 30.329 23.194 56.127 48.768 70.925 17.627 10.177 27.507 28.939 27.507 47.927v39.624l-28.274-10.808c-15.117-5.779-27.406 13.174-15.963 24.618l56.13 56.13c5.858 5.858 15.355 5.858 21.213 0l56.13-56.13c11.444-11.444-.845-30.396-15.963-24.618l-28.274 10.808v-15.649M272.034 354.721c30.18-4.864 55.84-23.235 70.582-48.714 10.177-17.627 28.939-27.507 47.927-27.507h39.624l-10.808 28.274c-5.779 15.117 13.174 27.406 24.618 15.962l56.13-56.13c5.858-5.858 5.858-15.355 0-21.213l-56.13-56.13c-11.444-11.444-30.397.845-24.618 15.963l10.808 28.274h-39.649c-34.518 0-68.379 17.96-86.88 50.004-5.944 10.273-15.115 18.446-26.127 23.13" style="stroke-width:15;stroke-linecap:round;stroke-linejoin:round;stroke-miterlimit:10;" fill="none" stroke="#ed3237" stroke-width="15" stroke-linecap="round" stroke-linejoin="round" stroke-miterlimit="10" data-original="#ed3237"></path><path d="M150.709 225.189c-8.807 5.428-18.996 8.31-29.252 8.31H81.833l10.808-28.274c5.779-15.117-13.174-27.406-24.618-15.962l-56.13 56.13c-5.858 5.858-5.858 15.355 0 21.213l56.13 56.13c11.444 11.444 30.397-.845 24.618-15.963l-10.808-28.274h39.649c34.518 0 68.379-17.96 86.88-50.004C217.872 212.06 235.644 201 256 201c10.02 0 19.414 2.679 27.505 7.361" style="stroke-width:15;stroke-linecap:round;stroke-linejoin:round;stroke-miterlimit:10;" fill="none" stroke="#ed3237" stroke-width="15" stroke-linecap="round" stroke-linejoin="round" stroke-miterlimit="10" data-original="#ed3237"></path><path d="M240.062 157.264c-28.964 4.639-53.773 21.716-68.778 45.581" style="stroke-width:15;stroke-linecap:round;stroke-linejoin:round;stroke-miterlimit:10;" fill="none" stroke="#ed3237" stroke-width="15" stroke-linecap="round" stroke-linejoin="round" stroke-miterlimit="10" data-original="#ed3237"></path></g></svg>