<svg xmlns="http://www.w3.org/2000/svg" version="1.1" xmlns:xlink="http://www.w3.org/1999/xlink" width="512" height="512" x="0" y="0" viewBox="0 0 512 512" style="enable-background:new 0 0 512 512" xml:space="preserve"><g><path fill="#ffb09e" d="M359 465.2c-10.4-7.1-22.9-14.4-11.5-24.7 13.6-13.7 11.3-30.3-3.6-42.4-22-18.1-19.1-44.1-6.6-70l-16.8-2.9c-14 31-12.7 64.4 12.2 84.6 9.7 8.9 10.1 11.7 2.6 20.1-20.2 21.4-1.4 39.7 18.2 51.1-23.5 1.4-41.9.6-76.1 8-16.5 3.7-31.3 8.8-47.7 4.3-15.4-4.1-22.8-9.9-23.2-12.7l-16.1 1.2c1.3 15.8 22.6 23.7 35.1 27 19.1 5.3 36.9.2 55.2-4.1 25.9-5.8 46.6-6.5 61.8-7 17.7-.6 29.4-1.1 31.5-11.8 2.1-9.5-6.6-15.2-15-20.7z" opacity="1" data-original="#ffb09e"></path><path fill="#ffc344" d="M141.8 287.5c19.8 18.5 31.2 44.2 30.4 71.2h-30.5c.9-27-10.5-52.7-30.4-71.2C22.5 204.2 91.6 53.9 213.9 67.9c-107.1 12.9-150.5 147-72.1 219.6z" opacity="1" data-original="#ffc344"></path><path fill="#ffd15b" d="m262.8 261.8 21 27.7c-19.1 17.5-28.9 43.2-28.2 69.2h-83.3c.9-27-10.5-52.7-30.4-71.2-78.5-72.6-35-206.8 72.1-219.6 52.6 6.3 95.5 44.6 108.3 95-51.4 26.8-102.7 53.5-154.2 80.3z" opacity="1" data-original="#ffd15b"></path><path fill="#00c285" d="M272.2 379.1c0 11.3-9.1 20.4-20.4 20.4H145.4c-13.6.3-23.9-14-19.3-26.8 2.7 8.1 10.4 13.9 19.3 13.9h106.4c8.9 0 16.6-5.7 19.3-13.9.7 2 1.1 4.2 1.1 6.4z" opacity="1" data-original="#00c285"></path><path fill="#05e39c" d="M271.1 372.7c-2.7 8.2-10.4 13.9-19.3 13.9H145.4c-9 0-16.6-5.8-19.3-13.9 2.8-8.2 10.4-13.9 19.3-14h106.4c9 0 16.6 5.9 19.3 14z" opacity="1" data-original="#05e39c"></path><path fill="#00c285" d="M272.2 419.9c0 11.2-9.1 20.4-20.4 20.4H145.4c-13.7.3-23.9-14-19.3-26.8 2.7 8.1 10.3 13.9 19.3 13.9h106.4c8.9 0 16.5-5.7 19.3-13.9.7 2 1.1 4.1 1.1 6.4z" opacity="1" data-original="#00c285"></path><path fill="#05e39c" d="M271.1 413.5c-2.8 8.2-10.4 13.9-19.3 13.9H145.4c-9 0-16.6-5.8-19.3-13.9 2.7-8.3 10.4-13.9 19.3-14h106.4c8.9 0 16.6 5.9 19.3 14z" opacity="1" data-original="#05e39c"></path><path fill="#00c285" d="M237 446.2v14.5c0 11.3-9.1 20.4-20.4 20.4h-36.1c-11.3 0-20.4-9.1-20.4-20.4v-14.5c0 11.3 9.1 20.4 20.4 20.4h36.1c11.3 0 20.4-9.1 20.4-20.4z" opacity="1" data-original="#00c285"></path><path fill="#05e39c" d="M237 440.3v5.9c0 11.3-9.1 20.4-20.4 20.4h-36.1c-11.3 0-20.4-9.1-20.4-20.4v-5.9z" opacity="1" data-original="#05e39c"></path><path fill="#e1f7ff" d="M506.5 67c-23.6 76.3-47.2 152.7-70.7 229-24.9-4.9-75.3-14.8-100-19.7 28-39.9 56.1-79.8 84-119.7-37.3 25-120.6 80.8-157.1 105.3L168 243.2C280.9 184.5 393.7 125.8 506.5 67z" opacity="1" data-original="#e1f7ff"></path><path fill="#8ac9fe" d="m382.3 285.5-59.3 56 12.8-65.2z" opacity="1" data-original="#8ac9fe"></path><path fill="#c8effe" d="M420 156.5c-28.1 39.9-56.1 79.8-84.1 119.8L323 341.5c-13.6-18.1-47-62.2-60.2-79.7C299 237.6 382.9 181.3 420 156.5z" opacity="1" data-original="#c8effe"></path><path fill="#feb237" d="M198.6 42.3c-4.4 0-8-3.6-8-8V8.9c.2-10.6 15.9-10.6 16.1 0v25.3c0 4.5-3.6 8.1-8.1 8.1zM67.7 333c-6.9.2-10.8-9-5.7-13.7l17.9-17.9c3.1-3.1 8.2-3.1 11.4 0 3.1 3.1 3.1 8.2 0 11.4l-17.9 17.9c-1.5 1.5-3.6 2.3-5.7 2.3zM311.6 89.1c-6.9.2-10.8-9-5.7-13.7l17.9-17.9c3.1-3.1 8.2-3.1 11.4 0 3.1 3.1 3.1 8.2 0 11.4l-17.9 17.9c-1.6 1.5-3.6 2.3-5.7 2.3zM38.8 202.1H13.5c-4.4 0-8-3.6-8-8s3.6-8 8-8h25.3c10.6.1 10.6 15.8 0 16zM85.6 89.1c-2.1 0-4.1-.8-5.7-2.4L62 68.8c-3.1-3.1-3.1-8.2 0-11.4 3.1-3.1 8.2-3.1 11.4 0l17.9 17.9c5.2 4.8 1.2 14-5.7 13.8z" opacity="1" data-original="#feb237"></path><path fill="#feb237" d="M198.6 42.3c-4.4 0-8-3.6-8-8V8.9c.2-10.6 15.9-10.6 16.1 0v25.3c0 4.5-3.6 8.1-8.1 8.1z" opacity="1" data-original="#feb237"></path></g></svg>